<mxfile host="65bd71144e">
    <diagram id="TREUFQ87-iBbPydXEo5Z" name="principles">
        <mxGraphModel dx="1467" dy="1182" grid="1" gridSize="10" guides="1" tooltips="1" connect="0" arrows="0" fold="1" page="0" pageScale="1" pageWidth="1169" pageHeight="827" math="0" shadow="0">
            <root>
                <mxCell id="q2e0teX-T_m4GWr_z-8k-0"/>
                <mxCell id="q2e0teX-T_m4GWr_z-8k-1" parent="q2e0teX-T_m4GWr_z-8k-0"/>
                <mxCell id="q2e0teX-T_m4GWr_z-8k-2" value="principles" style="whiteSpace=wrap;html=1;fillColor=#60a917;strokeColor=#2D7600;fontColor=#ffffff;" parent="q2e0teX-T_m4GWr_z-8k-1" vertex="1">
                    <mxGeometry x="450" y="345" width="120" height="60" as="geometry"/>
                </mxCell>
                <mxCell id="q2e0teX-T_m4GWr_z-8k-3" value="Deploy Independent" style="whiteSpace=wrap;html=1;" parent="q2e0teX-T_m4GWr_z-8k-1" vertex="1">
                    <mxGeometry x="590" y="450" width="120" height="60" as="geometry"/>
                </mxCell>
                <mxCell id="q2e0teX-T_m4GWr_z-8k-4" value="Hide Implement detail" style="whiteSpace=wrap;html=1;" parent="q2e0teX-T_m4GWr_z-8k-1" vertex="1">
                    <mxGeometry x="610" y="210" width="120" height="60" as="geometry"/>
                </mxCell>
                <mxCell id="q2e0teX-T_m4GWr_z-8k-5" value="Isolate Failure" style="whiteSpace=wrap;html=1;" parent="q2e0teX-T_m4GWr_z-8k-1" vertex="1">
                    <mxGeometry x="260" y="345" width="120" height="60" as="geometry"/>
                </mxCell>
                <mxCell id="q2e0teX-T_m4GWr_z-8k-6" value="" style="endArrow=none;html=1;" parent="q2e0teX-T_m4GWr_z-8k-1" source="q2e0teX-T_m4GWr_z-8k-2" target="q2e0teX-T_m4GWr_z-8k-3" edge="1">
                    <mxGeometry width="50" height="50" relative="1" as="geometry">
                        <mxPoint x="1010" y="650" as="sourcePoint"/>
                        <mxPoint x="1060" y="600" as="targetPoint"/>
                    </mxGeometry>
                </mxCell>
                <mxCell id="q2e0teX-T_m4GWr_z-8k-7" value="" style="endArrow=none;html=1;" parent="q2e0teX-T_m4GWr_z-8k-1" source="q2e0teX-T_m4GWr_z-8k-3" target="q2e0teX-T_m4GWr_z-8k-12" edge="1">
                    <mxGeometry width="50" height="50" relative="1" as="geometry">
                        <mxPoint x="1020" y="660" as="sourcePoint"/>
                        <mxPoint x="1180" y="600" as="targetPoint"/>
                    </mxGeometry>
                </mxCell>
                <mxCell id="q2e0teX-T_m4GWr_z-8k-8" value="" style="endArrow=none;html=1;" parent="q2e0teX-T_m4GWr_z-8k-1" source="q2e0teX-T_m4GWr_z-8k-5" target="q2e0teX-T_m4GWr_z-8k-2" edge="1">
                    <mxGeometry width="50" height="50" relative="1" as="geometry">
                        <mxPoint x="1030" y="670" as="sourcePoint"/>
                        <mxPoint x="1080" y="620" as="targetPoint"/>
                    </mxGeometry>
                </mxCell>
                <mxCell id="q2e0teX-T_m4GWr_z-8k-9" value="" style="endArrow=none;html=1;" parent="q2e0teX-T_m4GWr_z-8k-1" source="q2e0teX-T_m4GWr_z-8k-2" target="q2e0teX-T_m4GWr_z-8k-4" edge="1">
                    <mxGeometry width="50" height="50" relative="1" as="geometry">
                        <mxPoint x="1040" y="680" as="sourcePoint"/>
                        <mxPoint x="1090" y="630" as="targetPoint"/>
                    </mxGeometry>
                </mxCell>
                <mxCell id="q2e0teX-T_m4GWr_z-8k-10" value="các service không cần biết chi tiết service khác" style="shape=note;whiteSpace=wrap;html=1;backgroundOutline=1;darkOpacity=0.05;verticalAlign=bottom;size=12;" parent="q2e0teX-T_m4GWr_z-8k-1" vertex="1">
                    <mxGeometry x="570" y="110" width="110" height="60" as="geometry"/>
                </mxCell>
                <mxCell id="q2e0teX-T_m4GWr_z-8k-11" value="" style="endArrow=none;html=1;" parent="q2e0teX-T_m4GWr_z-8k-1" source="q2e0teX-T_m4GWr_z-8k-4" target="q2e0teX-T_m4GWr_z-8k-10" edge="1">
                    <mxGeometry width="50" height="50" relative="1" as="geometry">
                        <mxPoint x="950" y="500.4" as="sourcePoint"/>
                        <mxPoint x="1080" y="479.6" as="targetPoint"/>
                    </mxGeometry>
                </mxCell>
                <mxCell id="q2e0teX-T_m4GWr_z-8k-12" value="các service update, deploy không ảnh hưởng service khác" style="shape=note;whiteSpace=wrap;html=1;backgroundOutline=1;darkOpacity=0.05;verticalAlign=bottom;size=10;" parent="q2e0teX-T_m4GWr_z-8k-1" vertex="1">
                    <mxGeometry x="840" y="340" width="110" height="60" as="geometry"/>
                </mxCell>
                <mxCell id="q2e0teX-T_m4GWr_z-8k-13" value="Clojure Automation" style="whiteSpace=wrap;html=1;" parent="q2e0teX-T_m4GWr_z-8k-1" vertex="1">
                    <mxGeometry x="400" y="200" width="120" height="60" as="geometry"/>
                </mxCell>
                <mxCell id="q2e0teX-T_m4GWr_z-8k-14" value="" style="endArrow=none;html=1;" parent="q2e0teX-T_m4GWr_z-8k-1" source="q2e0teX-T_m4GWr_z-8k-13" target="q2e0teX-T_m4GWr_z-8k-2" edge="1">
                    <mxGeometry width="50" height="50" relative="1" as="geometry">
                        <mxPoint x="950" y="530" as="sourcePoint"/>
                        <mxPoint x="1010" y="550" as="targetPoint"/>
                    </mxGeometry>
                </mxCell>
                <mxCell id="q2e0teX-T_m4GWr_z-8k-15" value="" style="endArrow=none;html=1;" parent="q2e0teX-T_m4GWr_z-8k-1" source="q2e0teX-T_m4GWr_z-8k-4" target="q2e0teX-T_m4GWr_z-8k-16" edge="1">
                    <mxGeometry width="50" height="50" relative="1" as="geometry">
                        <mxPoint x="1200" y="466.57142857142856" as="sourcePoint"/>
                        <mxPoint x="1260" y="463.1428571428571" as="targetPoint"/>
                    </mxGeometry>
                </mxCell>
                <mxCell id="q2e0teX-T_m4GWr_z-8k-16" value="VD: 2 service chia sẻ DB, DB schema thay đổi service ngoại toang, thay vào đó cho service ngoại trỏ tới API server của mk (thêm 1 tầng abstraction)" style="shape=note;whiteSpace=wrap;html=1;backgroundOutline=1;darkOpacity=0.05;verticalAlign=bottom;size=11;" parent="q2e0teX-T_m4GWr_z-8k-1" vertex="1">
                    <mxGeometry x="760" y="40" width="170" height="90" as="geometry"/>
                </mxCell>
                <mxCell id="q2e0teX-T_m4GWr_z-8k-17" value="Infrastructure automation" style="whiteSpace=wrap;html=1;" parent="q2e0teX-T_m4GWr_z-8k-1" vertex="1">
                    <mxGeometry x="210" y="210" width="120" height="60" as="geometry"/>
                </mxCell>
                <mxCell id="q2e0teX-T_m4GWr_z-8k-18" value="" style="endArrow=none;html=1;" parent="q2e0teX-T_m4GWr_z-8k-1" source="q2e0teX-T_m4GWr_z-8k-17" target="q2e0teX-T_m4GWr_z-8k-13" edge="1">
                    <mxGeometry width="50" height="50" relative="1" as="geometry">
                        <mxPoint x="914.375" y="380" as="sourcePoint"/>
                        <mxPoint x="895.625" y="480" as="targetPoint"/>
                    </mxGeometry>
                </mxCell>
                <mxCell id="q2e0teX-T_m4GWr_z-8k-19" value="" style="endArrow=none;html=1;" parent="q2e0teX-T_m4GWr_z-8k-1" source="q2e0teX-T_m4GWr_z-8k-20" target="q2e0teX-T_m4GWr_z-8k-13" edge="1">
                    <mxGeometry width="50" height="50" relative="1" as="geometry">
                        <mxPoint x="1060" y="360" as="sourcePoint"/>
                        <mxPoint x="980" y="330" as="targetPoint"/>
                    </mxGeometry>
                </mxCell>
                <mxCell id="q2e0teX-T_m4GWr_z-8k-20" value="Continuous delivery" style="whiteSpace=wrap;html=1;" parent="q2e0teX-T_m4GWr_z-8k-1" vertex="1">
                    <mxGeometry x="360" y="95" width="120" height="60" as="geometry"/>
                </mxCell>
                <mxCell id="q2e0teX-T_m4GWr_z-8k-21" value="Docker" style="shape=note;whiteSpace=wrap;html=1;backgroundOutline=1;darkOpacity=0.05;size=11;" parent="q2e0teX-T_m4GWr_z-8k-1" vertex="1">
                    <mxGeometry x="300" y="-10" width="80" height="40" as="geometry"/>
                </mxCell>
                <mxCell id="q2e0teX-T_m4GWr_z-8k-22" value="" style="endArrow=none;html=1;" parent="q2e0teX-T_m4GWr_z-8k-1" source="q2e0teX-T_m4GWr_z-8k-21" target="q2e0teX-T_m4GWr_z-8k-20" edge="1">
                    <mxGeometry width="50" height="50" relative="1" as="geometry">
                        <mxPoint x="880" y="346" as="sourcePoint"/>
                        <mxPoint x="800" y="354" as="targetPoint"/>
                    </mxGeometry>
                </mxCell>
                <mxCell id="q2e0teX-T_m4GWr_z-8k-23" value="ngoài ra sẽ cần giới hạn, thông tin nào cần thiết để expore, thông tin nào không (bảo mật)" style="shape=note;whiteSpace=wrap;html=1;backgroundOutline=1;darkOpacity=0.05;verticalAlign=bottom;size=12;" parent="q2e0teX-T_m4GWr_z-8k-1" vertex="1">
                    <mxGeometry x="880" y="155" width="120" height="90" as="geometry"/>
                </mxCell>
                <mxCell id="q2e0teX-T_m4GWr_z-8k-24" value="" style="endArrow=none;html=1;" parent="q2e0teX-T_m4GWr_z-8k-1" source="q2e0teX-T_m4GWr_z-8k-4" target="q2e0teX-T_m4GWr_z-8k-23" edge="1">
                    <mxGeometry width="50" height="50" relative="1" as="geometry">
                        <mxPoint x="1187.7777777777778" y="440" as="sourcePoint"/>
                        <mxPoint x="1270" y="388.37209302325573" as="targetPoint"/>
                    </mxGeometry>
                </mxCell>
                <mxCell id="q2e0teX-T_m4GWr_z-8k-25" value="&lt;div&gt;&lt;span&gt;VD:&amp;nbsp;&lt;/span&gt;&lt;span&gt;1 OS - 1 Service vs.&amp;nbsp;&lt;/span&gt;&lt;span&gt;1 OS - N Services&lt;/span&gt;&lt;/div&gt;&lt;div&gt;&lt;span&gt;vấn đề vs 1 OS - N Services:&lt;/span&gt;&lt;/div&gt;&lt;div&gt;&lt;span&gt;+ 1 service ăn CPU, RAM, hoặc lỗi nghiêm trọng các service khác ngỏm, crash cùng&lt;/span&gt;&lt;/div&gt;&lt;div&gt;&lt;span&gt;+ 2 service yêu cầu các dependency khác version&lt;/span&gt;&lt;/div&gt;&lt;div&gt;&lt;span&gt;Docker sinh ra với duty giải quyết vấn đề này&amp;nbsp;&lt;/span&gt;&lt;span&gt;vừa nhẹ lại vửa compact&lt;/span&gt;&lt;/div&gt;" style="shape=note;whiteSpace=wrap;html=1;backgroundOutline=1;darkOpacity=0.05;verticalAlign=bottom;align=left;size=12;" parent="q2e0teX-T_m4GWr_z-8k-1" vertex="1">
                    <mxGeometry x="950" y="470" width="210" height="150" as="geometry"/>
                </mxCell>
                <mxCell id="q2e0teX-T_m4GWr_z-8k-26" value="" style="endArrow=none;html=1;" parent="q2e0teX-T_m4GWr_z-8k-1" source="q2e0teX-T_m4GWr_z-8k-3" target="q2e0teX-T_m4GWr_z-8k-25" edge="1">
                    <mxGeometry width="50" height="50" relative="1" as="geometry">
                        <mxPoint x="1109.7058823529412" y="600" as="sourcePoint"/>
                        <mxPoint x="1242.0588235294117" y="700" as="targetPoint"/>
                    </mxGeometry>
                </mxCell>
                <mxCell id="q2e0teX-T_m4GWr_z-8k-27" value="để tránh lệch schema tại kênh trao đổi giữa 2 service, CI build, test sẽ cho vào 1 pipeline để test các &quot;expectations&quot;, chỉ cần fail thì sẽ quay lại bước code" style="shape=note;whiteSpace=wrap;html=1;backgroundOutline=1;darkOpacity=0.05;verticalAlign=bottom;size=14;" parent="q2e0teX-T_m4GWr_z-8k-1" vertex="1">
                    <mxGeometry x="850" y="630" width="160" height="100" as="geometry"/>
                </mxCell>
                <mxCell id="q2e0teX-T_m4GWr_z-8k-28" value="" style="endArrow=none;html=1;" parent="q2e0teX-T_m4GWr_z-8k-1" source="q2e0teX-T_m4GWr_z-8k-3" target="q2e0teX-T_m4GWr_z-8k-27" edge="1">
                    <mxGeometry width="50" height="50" relative="1" as="geometry">
                        <mxPoint x="1130" y="566.1290322580644" as="sourcePoint"/>
                        <mxPoint x="1170" y="563.5483870967741" as="targetPoint"/>
                    </mxGeometry>
                </mxCell>
                <mxCell id="q2e0teX-T_m4GWr_z-8k-29" value="hướng khác là chia version, tại một thời điểm có thể tồn tai nhiều version: api/v1, api/v2, điều này cho phép các service cũ hoạt động bình thường và có thời gian update cũng như restore version cũ bất kì lúc nào, sau đó có thể xóa version cũ" style="shape=note;whiteSpace=wrap;html=1;backgroundOutline=1;darkOpacity=0.05;verticalAlign=bottom;size=14;align=left;" parent="q2e0teX-T_m4GWr_z-8k-1" vertex="1">
                    <mxGeometry x="500" y="550" width="180" height="130" as="geometry"/>
                </mxCell>
                <mxCell id="q2e0teX-T_m4GWr_z-8k-30" value="" style="endArrow=none;html=1;" parent="q2e0teX-T_m4GWr_z-8k-1" source="q2e0teX-T_m4GWr_z-8k-3" target="q2e0teX-T_m4GWr_z-8k-29" edge="1">
                    <mxGeometry width="50" height="50" relative="1" as="geometry">
                        <mxPoint x="1083.9072847682119" y="600" as="sourcePoint"/>
                        <mxPoint x="1116.8211920529802" y="671" as="targetPoint"/>
                    </mxGeometry>
                </mxCell>
                <mxCell id="q2e0teX-T_m4GWr_z-8k-31" value="cách này chỉ phù hợp với trao đổi 1 chiều, tức consumer vs producer, vì consumer có thể expect producer schema nào đó sao cho producer update k ảnh hưởng tới consumer, nhưng với cả 2 đều update schema thì việc test sẽ khá phức tạp và nhiều rủi ro" style="shape=note;whiteSpace=wrap;html=1;backgroundOutline=1;darkOpacity=0.05;verticalAlign=bottom;size=14;align=left;" parent="q2e0teX-T_m4GWr_z-8k-1" vertex="1">
                    <mxGeometry x="661" y="740" width="219" height="110" as="geometry"/>
                </mxCell>
                <mxCell id="q2e0teX-T_m4GWr_z-8k-33" value="" style="endArrow=none;html=1;dashed=1;" parent="q2e0teX-T_m4GWr_z-8k-1" source="q2e0teX-T_m4GWr_z-8k-29" target="q2e0teX-T_m4GWr_z-8k-31" edge="1">
                    <mxGeometry width="50" height="50" relative="1" as="geometry">
                        <mxPoint x="1166" y="771" as="sourcePoint"/>
                        <mxPoint x="1186.4375" y="810" as="targetPoint"/>
                    </mxGeometry>
                </mxCell>
                <mxCell id="q2e0teX-T_m4GWr_z-8k-34" value="việc này cũng có cons: việc debug giờ mất công hơn khi phải check nhiều version" style="shape=note;whiteSpace=wrap;html=1;backgroundOutline=1;darkOpacity=0.05;verticalAlign=bottom;size=14;align=left;" parent="q2e0teX-T_m4GWr_z-8k-1" vertex="1">
                    <mxGeometry x="480" y="740" width="125.24" height="80" as="geometry"/>
                </mxCell>
                <mxCell id="q2e0teX-T_m4GWr_z-8k-35" value="" style="endArrow=none;html=1;dashed=1;" parent="q2e0teX-T_m4GWr_z-8k-1" source="q2e0teX-T_m4GWr_z-8k-29" target="q2e0teX-T_m4GWr_z-8k-34" edge="1">
                    <mxGeometry width="50" height="50" relative="1" as="geometry">
                        <mxPoint x="1166" y="771" as="sourcePoint"/>
                        <mxPoint x="1194.2061403508771" y="830" as="targetPoint"/>
                    </mxGeometry>
                </mxCell>
                <mxCell id="q2e0teX-T_m4GWr_z-8k-36" value="Slowly Failure:khác crash - fail chậm (CPU lên, request file quá lớn)&lt;br&gt;+ cách 1: maxtimeout 2p, sau thời gian này phải response (có thể lỗi)" style="shape=note;whiteSpace=wrap;html=1;backgroundOutline=1;darkOpacity=0.05;verticalAlign=bottom;size=14;align=left;" parent="q2e0teX-T_m4GWr_z-8k-1" vertex="1">
                    <mxGeometry x="70" y="550" width="200" height="80" as="geometry"/>
                </mxCell>
                <mxCell id="q2e0teX-T_m4GWr_z-8k-37" value="" style="endArrow=none;html=1;" parent="q2e0teX-T_m4GWr_z-8k-1" source="q2e0teX-T_m4GWr_z-8k-38" target="q2e0teX-T_m4GWr_z-8k-40" edge="1">
                    <mxGeometry width="50" height="50" relative="1" as="geometry">
                        <mxPoint x="1048.4615384615386" y="600" as="sourcePoint"/>
                        <mxPoint x="976.6666666666665" y="700" as="targetPoint"/>
                    </mxGeometry>
                </mxCell>
                <mxCell id="q2e0teX-T_m4GWr_z-8k-38" value="" style="shape=image;verticalLabelPosition=bottom;labelBackgroundColor=#ffffff;verticalAlign=top;aspect=fixed;imageAspect=0;image=data:image/png,iVBORw0KGgoAAAANSUhEUgAAAZ0AAADiCAYAAACV3BoCAAAAAXNSR0IArs4c6QAAAARnQU1BAACxjwv8YQUAAAAJcEhZcwAADsMAAA7DAcdvqGQAAI0LSURBVHhe7b0HQFVJti48//v/d++78c3Nd+bmO3MndDB20M4593SY6Z7U09M9naejHW1Tq20OoJgjKAoSRMxZUAQVEQRFBBQQBERyjvr961v7bDgcjwpyzlGxyv76cPapql21dtX6aq0K+zutredhYGBgYGDgCxjSMTAwMDDwGQzpGBgYGBj4DIZ0DAwMDAx8BkM6BgYGBgY+gyEdAwMDAwOfwZCOgYGBgYHPYEjHwMDAwMBnMKRjYGBgYOAzGNIxMDAwMPAZDOkYGBgYGPgMhnQMDAwMDHwGQzoGBgYGBj6DIR0DAwMDA5/BkI6BgYGBgc9gSOcaQlsX4S7t5eAun67CXX6Xg7t8DK4u3D2ny8FdPl2Fu/wuB3f5dBXu8jO49mBI5xqCu47kDu7SXg7u8ukq3OV3ObjLx+Dqwt1zuhzc5dNVuMvvcnCXT1fhLj+Daw+GdHyIc+fOwwQTTLi+QmvruQv6ssGVQ0nHjBK8C2skBlSUVyHzeDYOH05DSkqafB5BqoCfilT5fiT9AhxOO6pIkd/tuJ3SXQLO8TS95OPuHq6w78kyueZzKbi7X1fuacdjGk/Azu9y8Ma9fQG77JeCXS8F07g8n0vhWmk3XUWqIC3VM7DLcTwjC+XllWhrOydw37cNug8hHRGoYXKvghZOS0sr4uISsGD+IqwKDUdUVDQiI6M6IWL15eGapjtwl9/l4C6frsJdfr5EeORqhEV0DeHXQHm9CXfPp6twl9/l4C6frsJdfpeDu3yuFKtXW30zIGA24vbEo76+wZCOByGk02ZIx8tgg21ubsG+fQeEeKxGbIIJJlzbYefOGOmzidJf6w3peBDfaW1rNaTjZbSTTsIB7NmzV0mH1s8F8boI13Rdgbt8ugp3+V0O7vIxuLpw95wuB3f5dBXu8rsc3OXTVbjL70pw7pxFOju27zSk4wWIpWNIx9voRDq796Kurt4t6Rhcn2hrg0eVnsHVxTl5nsT2bYZ0vAHjXvMBDOn4Bi0t51SuzoHfvUUKzve7UqXEsp2XLJie+ZmVUlcfJBw+k+3G0vEKzEICH8CQjvdhEwAHUcePZ2HnzlhwlWB1da2SAgNXIV1MqXeHmOy4VEylpeVIPnQYZ0vOdlsxMZ+WljZpDw3yvVXLx+92Gb1FlgaXhiEd70JIRxq3y0UDz8KQjvdBP3xDQyOio9dh1qw5WL58pSIrMws1NbWoraXMHc76SwQqftt6cQ7qEZDn6BqOHcvAokVLcOTIUceVjuAuL1t52SSZlXUC48ZN0LZBZWeTmXNgGndFPy/XLIIyg0ZPwpCOd2FIxwcwpON9UCkfOJCIefMWIC3tiEMtA42NTVi6NAijvxmLmJjdqKioQllZBfbuTdBFHfn5p3HoUIouYU+I34/qqmohryYUFZ3B/v2JWLNmLZKTD4visVYcnjhxEhs3blZyO5h4CEkHkxEcvBIZGRn6e1raUUStjsbhlDQlQaKwsFhXQsXH70OV5O9MItu378AHH3yEwMBlYjWVSV3atIxHj2Zg3bqN2LFjl5S3XNKcQ2VltZBbupaJZbfzcicPgyuHIR3vwpCOD2BIx/ugEi8qKsbcufOxYkUoSkpKVanX1zdi/ryFGDNmHA4lpeDokWMYNXI0Jk+aisTEJGRnn8Tu3XHYuSMGs2fN1SXtJI5hw0YgIGAONmzYhGnT/ITQDio50arZvHkbJkn6+fMXIiFhP8JWReB4xnHsEmJZsjgQa9duwJw584SsUpF4IAlffPEVZswIQIp8p8XF9kClxjJyz9b69ZuUGI8dOyZ1aYO//0wMHzYSa6PXI2DmbISFRQpxncHUqdMxevRYbNq0BX5+M/S+ZUJURiF6FiQdwiwk8A4cpGPMc2/CkI5vQOI5XVCIoKDlGDVqtCjzjWI1VGLLlq3YJgqEVkxqapq63w4dSlZSYmhqasbZs2VisYSoxUMSWrBgkcZloJLftTMWISGrNE9aHjG7YpUsaOnQsuGzXbhwMbZu2a4nT4SFRVjxxVohoWRmZmle9rwSSWfv3ngluv2i2OYJMZL4amvqsWRJoFplTU1NKCg4relpdXGzIi0cbjQ+eTJHCZDuPeZllKLnYFs6tDIP7D9oSMfDMKTjAxjS8Q2c5z3yck+pJbJt2w51hfGzsrJK515IElTaDKmpR8QqmY/Fi5fq3ArJgm6wyIgosYJOaJwdO3YiNmaPurZICMyXoEV0IjtHiWrLlm2YOmU6/KbPUGtnllhJJK9du3YrORUWFrUrLio0BpLjp59+genT/PHF518pqeTl5Wt+LBfnoCorqhC8fCViY/foHFVq6lFtOyRTlpmuP8YzStFzMKTjXRjS8QEM6fgG9vJjO6xduw6rVoWLcg/uZOmEhoYhKytb51DoyuJ8Cy2QiIhIJR2SRWhIGI4fz9R8aClRAeWfOo3wcImzKkIskEJ9hlwpt3JlqLrZOC+TnJyiaexAy4RHqpw+fbpdcbGMR4+mqwvOXoBQUnJWLRfONdFFSJLkPBLLyXkqKr8Z/gFiYe3WtkTCmzt3ATJo6QjZGhe550DSgSEdr8GQjg9gSMf7UNfa6UIlBVoGc2bP0zkQKvUUsQamT/dXNxnncdat24Dc3Fx1U3FSnu42EsaI4aOwOnKNxomIWK0Kn4GWzt64BD2UcuLEyRg+fKR+bt26XZdlc16Gczrx8Qk6/0MLhmRHQuLRR3TJ2ZaObY2xDLTASHx22Lx5K8LDIjFtqh++HTsey5at0PvQiuLiApLP+PETleSmiFXFie66ujqjED0MQzrehSEdH6CddEQBceRrSMfzoDLnqjMuQaYrjAsCiotLVM60Yo4dO46kpGSdu+FkflNTi1ocXN1Gq+HAgSQhrWJRMI36O1eKca6H+TY2tuBM8VmsWBGibq662gYhrVM6mU/FxLgkMAYSHy0lTkBzDw/34HCvUHMz9+FY5eScDlfQ8T7Oe3J4n4L8QiWxXbti1c2XfjRDLZ7y8gq10Di3xEUN2Vkntez2HJGrPAyuHIZ0vAtDOj5AO+kYS8ersK0IO5BUqJSd977Yn5S/uxMM6KoiGGyFznxra+vU/cXl0dbm0xhd3Wa7x/iMXd17vGZ/dyUHXnd1i/Ea70OriwTJNHYoFbLkCeVcit2RZ0daA8/BkI53YUjHBzCkc/2DxHNGLCe632bOmKUutKzME9J3rE2j7tJ0FyQTWjUkHM4ftZIUHURGi4mLBrjnh0Rl5nC8B0M63oUhHR/AkM71D1crxg6edm/Z93FWcrTIbGvNKD/vw5COd2FIxwcwpHN9g0RARWSRC5cnW999bW3wvsbC8T4M6XgXhnR8AEM61zecSeZqEY6B72BIx7swpOMDGNIxMLh+YEjHuzCk4wMY0jEwuH5gSMe7MKTjAxjSMTC4fmBIx7swpOMDGNIxMLh+YEjHuzCk4wMY0jEwuH5gSMe7MKTjAxjSMTC4fmBIx7swpOMDGNIxMLh+YEjHuzCk4wMY0jEwuH5gSMe7MKTjAxjSMTC4fmBIx7swpOMDGNIxMLh+YEjHuzCk4wMY0jEwuH5gSMe7MKTjAxjSMTC4fmBIx7swpOMDGNIxMLh+YEjHuzCk4wMY0jEwuH5gSMe7UNIx8C58STqeeOdKT/Mw730xuJ5hSMe7MKTjA3iLdKjc3b3N8krz5hsqmdbOw/k7g/XmSlrF7i1jfcOl1JXB02/U9DRc6+YcelJ2yoiwX/jm/Hy6kq8d/1qUn3Nd7OBcV3dpLgemP39O6it/O7dnfnZF0dvp3f12pTCk410Y0vEBvEE6fGd/S3MrTp0qwMGDh5AQvx+pqUdw/HgWzp4t1Y7LezAeAzum3aGp0GxysDu33eEbGhpx8kQuSkrO6u9NTc3IPJ6Ng4mHUHKmVPOxg10H+x4MjY1NWqaysnLN17Xc1wpY37raBpSWlou8yqS+pSgrrUBlZbU+K1vpMx6VkK0UbQvO+W/7O+VXXV2DiooqyaNV5dHU1KL5Uq62rCkvZ9nY3/lZU1OnZWhpae0U52qD9auurlV5sR0QlBuvtcmPdlkZr6vyYrya6jrU1zXKNSFoqT/7Bu/BZ0B5USZ2fnY6JSmHvCjvuroG+W61aTv/nsCQjndhSMcHYIP1NOmw87U0tyEnJw+LFi3BzJmzsW3bTqxfvxFJSclKFnZoqG9UMuC1evm7tbVNO269dFZetwOvM7+NGzfj2LEMvXb4cCqWL1+BwKXLEBG+GidP5mh+1aIsqBgZmAeVD+tYVFQs5dih5HctjtYJW3EVFZ1BeHgkxo2bgNDQMERHr8eePXuFNCq1XnawFVxXQpykp6Kqq61XrF27HrNnz0Vg4DKcEDKnIiUYWAb97vhkiIvbi337Dgj5UJm7L7+vofKS8p04cVLbweTJU0VW67Amai2OHEnX52+Xn8G5PpcKbG9bt2xHVtYJ+btVySYiYjUWzF+EkJWrcOZMiSOmFew87fxJ7Dt3xiAzM1vaIgcK7svfXRjS8S4cCwnc/2jgGXiDdAgqQir+xMQk6fxH1Tqh8vT3n4lVq8KRlnYUW7duV1KKjdmDzZu2yt9LsX9/ohLTihUrRRkG4dChZLGS0qTDRwp5BSAyMqrd0jl0KAXp6Rk6qt2+facqieg167BkcSAOp6ThdEER1q3bgIULF2u+x44dx969CTh9utAjdfQmKL/09GPYsX0XigqLkJCwT+W3evUaIddcnC2ROguR746NE/JNUzLmJ2URG7tH5UAZlJVVID5+nxLYsmXBSrise35+AWJ27VZZbNu2XeVCuTMeiaWurk5lGxYWIWQTj9Kz5di1M1avXWuWDkFFHx+foPWorq7GOiHUFcEh2LBhk1o+tHA56Ek8kITkQ4dFXltwIjtHyX3Tpi0qP8q1vKxS2yNlvVjaY/6p05p3WtoRJf3KyiqsXBGi96GcKR/KlH0oKekQQkPCkJZ6VC3I9es2Ii83X4jCWDrXCwzp+ADeJB2Sw5Yt29QiSRaCIBns35coCnQ/olZHY7F83y335IiQv1FJLF0ahKioaBkhZmL7ju1iyYgVExGOo0dJUltldL5OOz5dQ1Qo8+cvxPJlKxAZEYVVoUJmQlDZ2Sc0f+Z5KClFLSTeY8P6TXpvuteuZdKx53T27z+grkkqwuDglSKHKFGQWxEjSpEKcVlQsMgvTomYclu5IlSJZW9cglX/JYFK8FSOVLgk38zMLCVsElR4WKQqXMqOo3daU4dEIZOoaS0QKSmpmpZKjs+yoKBAlfC1pOhsdxgJmqRIq2TGjABs3rxV60YSmTVrrrSdDdi1K1aJlYOdlStDEbx8pbYRtiHKj3Ig6ZJ0aAEWFRWpvJguVNoXyYntjBY2rfckSct2SFBOlBcHBiRqysxqa56b1zGk410Y0vEBvEk6dHdRUZEEOApkJykuKtF7UaGxc3MkSVdI2KoIGX0XamfiyJyEtXHjBlGctFL2o6KiQpTIFnXx0DXGuSEqWyrIEhn1c66HSicnJ1cthAULFqkrJPN4poxEM7FmzVp1wXEU2tTYdE2TDpVoY2OLkktGRhYKC4uxccNmhxyTxarbpUrx+PHjSigkEypYjsTXiIVDGRw4kKhERRLic+DcGkmloOC0KlG62hYtXKLpOMKnwqQriGH79h2YN2+BEP0xKU8bdsozIUHRmjx79uw1p+RIgpw/ISHQgsvIOK4kUFxcLG1svww4YoUIokWORUpCrDetPFra27buUGKg25WDHloudJ3t2hWjbZEDHAa2Hw5iSGBsaySu06dP6zwXyWrWrDnIy8uXspyXNrleXXHxe/fJ7zUelde1Sjp8BvZgxPlv1zgMni6vJ/M1pOMD8EF5i3Ro4cTE7JZOfFaVHt1sVJzs7CQLLi6oqqpRsmAnPn48Wy0fjiJnzpwpo9FFohQ3i8JYjblz58rodQaSk1O0gZFIqEzoHmIoLS1TRcORPcH7UpFSiTBvKle68DKPWyP9a5l0KLszxSVKzFSgKSmHlWiK5RrdOqwXlSTrHiv1pCutuKhY5zXWrduoREQlGBKySmVBMgoImK0j8KqqKp07o6xIKufkZmwDmzdvU6uJcel6oqVE8qdbkvejErXnlDytNHoKKh0SJ+VFIti7N17duqdPF2lbI2Hws6ysDGuFeOmWrKqqxmGxStgmaAVPnTJd01NGe4UsJk6crIMi9g22LVrfdlurr2/QdpWcfFjzpawoa96TZMC5MuZFF3JjY6NH5eVN0mlpaRNZOjS4U9C+Ir91rATsANPwdzvo346vHfOmFjrIofN1CxeWpytQeTiCJ+TgIJ0rL5DB5cEH5Q3SIUpLK9QKaWhoVh93tRBMrYwMOe9AX3pFeZU2QFotdF9QwfE3ztXQouFIlZ0qOTlZSCRGRpKnpKzN2ni5iorzGk2NzVpeKmqO4qmcU1LSdEUWR6y0FujDJ7mVl1eitrbOI43Tm2BduMqMK/MqpMys16m8Aq1zbu4ptUioZDmhz1E65w6oFDlHQdcarUbOv3AehoqR7iBaAbSYKCuSDuchuCrOVhgFBYWaB114tDj53DYJ+dCi4v14Xz6zFmkr15r82B5Ytuysk9p+Sb78TjcbLcVjxzK1/CSAU6fylTDopqRlQrnQwmHbo8wpN87LcNDC+TDKh9bOccnHXkDB+3EwQNnQZVtRXqFtk8RM0mK+GRmZen8qVE/Ky5ukw3qRUGlN06uwYcNGHThSbgzsq1Zfo07uIJva2lp8++23WLBggbbHcePGYdKkyWoVO5NYUFAQvvpqqJI3r9v52KTDqIRzmZxJhX+7XqelOWL4KEyZMk2eU2WnOFcCQzo+ABust0iHypOredgQ2JisBms1FgZ+d96T4tQ+NZyXxIRzsMtm59Mxauqct91B7GCvKrLTX+uw68Lyqhy17J1lZHV8K6JdP+fgeo3fVQlK/rzurKz43Y5vp3FOy+Ca5lqCXVaWT+vAugjswGusO5WdXQ87jR1cvzMOR/IXk1f7vRzpXNPz/p721Kiylft4i3S4Wu+2227H//k//wd//dd/rZ/vvPNO+9wWg9XmOipbWlqKO+64A7/5zW+E1E9h8ODBuO+++5CTk+OIYYW33noT//3f/61uYTvweXB1oKuFZdfJVaasP3WGfZ3f+/cfiEceeUzdp7zuWq/uwLjXfAA+XG+RzpXDHgG1uoDX3MXvAOdDrpc2YxNLbwjeULDOsJdG95bAZ++unpeDt0nnWHoGfvKTn+Kzzz4Ta7dECeev/uqvsG3bNuzatUssiiliNeaKnqjDrFmzsGbNGpw5cwYPP/ww3nzzTXVvPvDAA3jyySfF4stDbGwsvvjiCxw8eBAfffSRkhOtot///vdYuHChunsZuMpvxIhRePHFX6irkh4JLjtfsSIEP//5S3qdrmLel4H66q233sGYMeNw552D8YtfvIzi4jOGdK4H9JR07JVDngUVMi0VF/C62/iega/amlRFA+VM1yNdBDZqa+t7BOe8fAHugaK7jpYlg6fJx9kS5j14L3f19gwaHHD3mwV3MuguGhqshSxWndzX+2JgO/Um6dDt2rdvPzz22GOYPHmyWi0vvfSSEsjIkSPxd3/3d4iPj9f5sVtuuQWvvvoq8vPzxdJ4BG+88UY76fzud79DeHg4/uu//kuv01X+9ddf47vf/S4efPBBDBw4UK0oxqFb7MEHH5I8HsW7776Hf/qn7yEocJnuJeO+q08++VRI7Gn85V/+tbpD6Qr+yU9uwj/94z/jUbFw/uIv/kJJh+50QzrXAbpLOlQCTGMHW8l4lnzYuS4Gd/F7BpbfJgKG7pBuV6Fyk092Cm585bwVV4Rx2TOX5nLJMz+DApdfd+CmTI5ODxw4KEq1VmXoCUVoWzckGk7Sc6Trel/KzXNgfnaegZ3APWNUhM737wnCw1drG+AcCoPtIr4c2F69STqcvxvQf6Ao/n/Cj3/8Y/z5n/853n77bXWvTZw4Ef/zP/8j5T4kz7kGd911F9577z0hgYJ20uHqwZ/97GdKKv/4j/+oLrfCQmsBxieffIJ/+Zfv6/YHbon4wQ9+oMS2du1a/Nu//ZsS2LRp0/DP//zPeOGFF/SedMVR9m+88aa6++bPXyDWzwp873vfw7p163S+6f77H9D4JDbKx13dugpDOj5Ad0jHedRZXl6hq3s4ecrVZtczuKyY+zW4oos+bS5OYHCeL+opbFLLzc3TCWgq6ZTkVJwpPqsLBIiqyhpd8NBT0PrwBThq5ycXLBxJS9c6UZ5UPAw9lR+VYOHpIp34J+FwDwwXmni/jsy/WlDl+LTRcV9X66WroLVkL/CgrLiyklaDJS/3cnCGt0mHp33cemsfjB8/Xvp4ubrAqOCp6MeMGaOkk5aWJrqgBbfffnsn0rHda8899xz+9E//FN/5znf0Oud5GD788EPcfPMtQjhZOHHiBH78ox8L6UzBypUhQkb/ghdffBFfffUVhg4dqm47rlr90Y9+hF/+8pdKWH/7t38r5VmAgICZSooph1NwTka9zz//vCGd6wldJR2bcDivwg7DjZ1c5cPRLUdH2dknr1ucOJGjpxWwI3PTIJfY2v5hT3RoW3Zc1cQNiVx6bI9we1Og1ct9LFwNxrqSaK+0/yrhFBbrgICnLtTVWr783hQoH+4TIqlyBWdX2pv3SecYfvKTn+DRRx8VCyMQjz/+OP7sz/4MmzZtwuzZs5WA6Gb75ptvVPHTCqJ7bdCgQWrV8O8777xT0j+mA9L//u8f4LXXXldCeOed9/Dv//6fyMjIQJboDFo6o0eP0Y3KP/zhD8XS+b1YtIlSt+04efKE/vY3f/O3Qs7L4e/vj3/4h3/AvHnzEBcXJ/n8O377299qmViOJ554Qi0jH5GOPZq6ErjL78ZCV0mHHYQTe9wnwhEtica2enpTqJFR7JbN23QEyhG7O1l0F5Qd3U7c78INgzwfzrYC+Bs7uyu6orD5O1d3Wis8L96mnV2fVp4Xj3shnPO+dDqWm2Hnzl26L4rLZ69EIbLujWJtcsl23J54lR3zvlLlasnJgvt62N8di1faXBevOMe9WB7dh/2cuXeIAxFOkl8d0rHqwvJwxRktjv/4j/9Q9xjnbZYuXaqWHpdAv/766zqvw4UCdKNNmDBBlf1rr72GYcOG6aKC11//Az54/yO5LoOGoOXoc2s/tVTHjh0vaZ5Xa5/HEj3xxFOYOnW6zulwb9O9996Hf/3Xf1O33saN3KycqVYTy0JCe/rppxEcHKxyGj9+HL7//e8pObIcXPhAi9GHpMOG0V30rMH0FnSFdKQPaoPk5k7u5cjKsnauc2Tboch6B6gEKANu+uNeDbpUekI89rwET0lgntxz45yfTQgXKMR215SNjjQdcPqd8Tul6WL8S97H5Te38YmONKwrJ3R5ggJ37rOu3VWKzIOnKFh7i6yluhfm4VIGN/WwicZGp98viO+sG1wJR3CJunfk76ZcbmHHddRVLG0Sz5kzpZdVmt4jHWv5PffB8fQPLoMmGhoapIxSP2mo/GxqalKrhZ+My7kdfpI4uOGWm0htdzHzZXm5H4xHOVVX1epeOR4GzKXo/JuuSnsRCt2PBfmnJS4HK6wor9XonBDdeawr9wSxnCyLXT6WhaTIQbH7+nUdXSAdS1gXjk4ugfZ4nR/+jYqukA4VMZUvj0HhPA4biU04HQqzo/O5g3N+rvBEfBvu4hPdicv60j3EkTYJlorhSjs286K8KDee++aOxJzLdE4I3hkXK2tHGsZxl6ZDwXXEteI7x+2A9buVf0ffuCBNi/Vp3dc5jQXKigqFSpGbDKkUuiM7m6R5jA+tHG7MdE1v35foKL9dro7fnNN0pOscvyMN9+M46Qn9bi3+cI1vpbHSWXlfKGf3aazfnMvEunLDNDf4cuXY5U6k9g7pdBAtFbprIAHYv9v7aZz31diEZP1t1cn+20121nVHPRhs+Tll6bgn87W+O9/XKqdTZEewvAeudeseumjpdAik62CanhewN4ANoCukw/O8eI4albA1epWH3B6HsnRAHnyLAxeODq3naaVzun7JNITLfRxxOqVxie/uHpdLY4P15bJWWjpcYURF4CqTroJ58d1CVKCc/+os3wvvb8lHlJTK1x71dsSxfre+t8izE/0uf7PD2Wkc8bXTdqQ5J3+35+3AeYlPWIRzMTedVQ5NI4Rznp/O93GJz/oSdBeRaO1d/B35XRpMy/hsizwc1n36zvfV+jnq0fk363f7mbfo7476ML4DnWQmP3boBwuW/ByyYnwB8+lcFqscVlwL7eXS+Ix7IVjfpsYWPXg19fARPRfwUvJiXt6xdFx15JXAkkPPYcv0SuAuv67DI6TjjrnJlpd7UO6YlGTLET4Ds3WX7noD5dAV0uk466zogt87OpvIxaGYQEgHUSUlsOO4S3OeaZxgxbeVQec0Voe+WJqL38NOo+UiHGVzTaPpqCRazukJz9qx6xouqHNXoUqlqUXPNeNRK87yte9tlZGfHasD7aAWpVO8zunYBuV3R5tsD2ynomQtErHinm+Ri6y/LQPnNLylysMuh30fF7k5F03vYZejc32JuLiEdsuuO0rRTs/z49yRln0/u5z2SNgOlrz4XDs/WxI0ZcVnyzidkmld7PgdFk57/eU3lZediPHb72Pdg2CZLDkL5DdXGXcQvAW7vko6YlVfDdJxlh91pTsd2nX0XOlfbfSYdGii2T5K7q7lRBN9glzbzdGnNWK5ME9tQGwgAptkGPiA6IfkWU48fJENxl16giuW3F3vKdjAGKicPHEP5tdV0uHIn5ODl1LAjOscKDOrU7Csnctrj66pvNo7tATK3N1ztztr+3NxTtPpPhemleZwibJ1BtsF/c5cNEHFyYnLS9X5UuA93ZGOXRetp5grrVIpkQRqWupwoiQHh06k4mheBs5UlqCpzTpfziIRB0gqUgEpKioaq5FRmIVD2Sk4XpCJitoKNLc2S3z2DeseVHaqFKU8FENFfRWOncpEcmYqThTmoKq+WiyBFr2Hlqn901JMbVK2kpoyHMk7hpTsVOQW56GuWRSeZOjs1mB9iZ6QDuOTdJjemXTs8rBsLfKQWuXe1c0ir+JcpJ44ivTc4yipKlNrRcSl6SwLz5JXs2TeKvUob6xD+umTSMpKw7H8LJSLLCh/1sOuf7sM+NwlTVldJY5L3GRJk3Wa8qpTImNbsWQrAwYFXUKSTlKdqS5Gam4akjIP4UTRSdQ0iSza72Pdg8/japCOnQ83J58tKdU5GXsexdmd1j10tIPLgW2KcPfb1YSQjtUI3P3YAfcCImtzJQWX/Q0ZMkSX+fn5+enSPx4emZXVcdowG4Hz35wQ4xsVBwy4HYMH343773sQ/fsNlHw+Q+DSILzyyqu6YelyQTsr6yB58m87WArMuu4cbMVyXj7t74RzoI+b8w323MCFeXTvQbLBXjnp8Nl0dCC9t6i0GlEEhZXFKCgrQnldDZqljLyPHc8GlS2fE//VNEmaijOKalEKVGZaP82/4x68n95funV5QxUKyotQXHUWtS3S+ZiTpnFOZymcc/IAmsS0OVNfjrzy0yiqKkFdSyP7naWI2/OXT+l7JB2+E8VbpMPf7Po0i5JsEnMiq+wk5m1ZjHf8P8IrE9/Am1P/iPErpiA+Yx9qRWGdp6wcaagkm0UKqaePYnKEH16b9g5+M/F1vDHlPcwIm4XD2YdR32S9KrldKYoMGiRVfFYixoVOx2tT38dvx7+J9/0/xfzoxUjPz0CTkBU34bJseu6Y3LOyrQZbj8bg66Vj8NsJb0qaN/DxzM8RvHUl8kpyRfkKwfEZ8z6UpaCnpMPTxhOkTbqSjspM7tUs8sosz0HAhoV4c/qH+I2U6bWJ72F88FTEHz+I2maxTiWdXXdLXm1IKjiCCeEzRF4f4tcT38ab0z7GjMh5OHLqGBpamyRv3kPasQzomsWUqUMj4rIO4JvACXh90rt4VdK87/8ZFm9ajoyibDSqvKQNOe5Dwqk5X4MNhzZh6JKReHWyyEuey4ezPsWyrcE4VVYgZNlBPBbpcKXeZt2HxDedXkpeniId6iO+ZmTSpCkY/c0YjB0zVjd/cjmzrUOd522cg61f7b/pfr54XEt/u/7M63YaR1btgTrdOb6l4zvnYdf5IrfVcCVyEdKxTF13P3bg4qRDYuHx+Dt37lTBcFKTlg5X1/AEWOe9EvZrjdkYeO4Pl3zybJ+f/vQm3bj00ksvIyhomZ66yjOI+HCYF9fXE9xlyzOJKEhukEpNTdXRA78T/JvnDx0+fFjLYV/nCbVJSXy75hE0SHn0mlhmPCmXm7O4MoObq7gBi2XkjtyHHnpYP3WJoCgwnnC7e/duLYOl1Pig3MnqQvDBXCnpWM9G5C9amiRRf74R+3IOYmLYdLzr/wnenT4E45f7YVdqgpCPYzUL8+MnO52kqWiuxLYjuzB6+URJMwQfzvwCMyLm4IAojqr6SkkjndpuB1IQad44XXsWkYnrpVOPxtuioIfMHYp56xfjcJ7IsFWIRMrHe+jE8LkWSdOGvKpCLN8TgSGLRuANSfOxpAkUpXlSrIoWicPRnd3WfEc61oi9URRoekU2vlk9CY+P/zkenPwcHp7+PB6Z8jweG/McPpjzKWJSY1EnxMy6Ud7NQqCJBSn4ZPkwPDTuOdw35Vk84PccHpQ0T415CSMXj0WyEE9jc5OlECWd2PfYkbEHb8z5GPd/+wLun/YiHvJ/EY9MlDTf/BzjQiaLxXRcykSLR+4jz6cKtQhLXINfz3wLD056Hg/6SRq/n+Oh8c/hZ6Nfxry184X4860RvKO+BOd0+GoET1s6+reUK6MsC99ETMSjE3/eXveHp72Ah8c8j/dEwcel7xN5SX9ifJVXC5KKU/FB4FdS9uclzXN4YIbIeurP8ZjUfbgQalKOEHULj6iRMsj/6s83Yfvx3Xhj1gd4cIzcQ57LA1NFxhN+hqfHvoQJq6aJVZorZRIFKvfhRsUGkfLqpLX4xZRX8cB4STP9Z1I2waRn8fTolzBn7SLklxdqW9Z08lw6SCfNp6TDN8vyTb5cIUg9w5ck8py09PR0yZM3Yr8/rt/pHaLXiJ/UrbYXiXqVoC5kWfhbXm6engzvrF/5IkW6S3laOvUs3wHFZdI80oY6hIE6hnqP+VG3US/SAKBOZB3tV6Rw0E0dz0ERwRPFudGasuNcLF9EyLhX8sZWIR0ZzzoUwcVxcdI5efIkIiIitPB24LXNmzYjZlesvtSL797gJDk3MvGoDUmmBeVD4YvEPv/8Czz55FP6ThOGqKjVul6cFtSGDRtw//334+abb8a//uu/KrhJqV+/frojl2vLufOWRPP737+K//zP/9CNVx9//LEQVI4oof145pln8Cd/8r/1UD0erpeXl6t533XXYCxevBjZ2dl6ON4rr/wWK1eu1HXp3OnL01ppuXGz1G233aabtgYNGiz1iNSys824l1dnsK6XIh17Y+PFSEddOKK0q89VY2PaFrw2613cO+ZJ3DPxKdw38Vk8MvbneHPmEETFb0BpbYXVECQNn095ayWW71+FF6e8gnvGPol7Jz+N+yc+g8fHPo8PZn2MLUmbxeqpkI4pz1OGny2iaPPqijBz20I8PemXuOvbJ3DPpKdw/4SnVTl/tuhrGeXuQ4NYPeyd50R5NgsRpp/NwNg10/D4pJcxWOLePfUZKdszeObblzEhZAqO5h9F0zl2dpbN6tjeJh1V6mzbEqHkXDnmJgTiiZkv47aZj6L//IfRb96DGDD3YQwKeBwPTXgGo1d+KyPr4xJf2reMlE83FWHCxmm4b9oz6DfzYdw690HcPPd+9Jn3MO6a8TSeGvcLzF63AIViCdJCYqM4XnECn60agcGTn0KfgMdws8S9dd4DGDj3Edw+5RE8M/FlhOwJQ1lduVpFLWI5JuQn4Y0lH+KOqY9jwLzH0Wf+o7hF0vWf+xjumvwEfuf3BjbKqL66sUqfrehdlR/bkqdIhxYLf2N7Y7nKzldidsxCPCYE2D/gYanH/bhp7r3oKzK7Tep1/7hn8O2qycgUS0QXB0i7KWgqxLhNIq/pz2DArEfQb8EjuGXBQ+i38FEMnvm0kP2LmLF+HgoqivSZUMZZtTn4dNVw3DP5SQwMeFTyf0jkJc9FZHCH3+N4dvKvER6/Rl2TJA8OohILU/CHxSKv6Y+jn8j11vnyXObfL89TnuXkx/DylNewPnkrqmUAwT5AhXq1SIdbIKj86RGyA3VPWFiYKPsqPYWAB3zygM758+dLf4jDsmXLdKkyyYjeI24GJUHwDDXqQ+7V4UZOvt5gxoyZ+hu3CtCi4p4cHuDJ9zj94Q9v4tNPP9fXh/M146NHj8bkyZOEmBKQlpaqx+FMnz4dY8eO1UE1LU/q6Nmz5urBoOxPXGI9edJUTJo4BX7TZ+g9/PxmSJmn45tR1qbT7r5avYukw98vJB5l3Lw83bHKClFY3HC0b98+VcwkEYJvEeQZThs2bNZNe2z0zJeKge/e+OMf39fdtVzCyRASEqKH4PGEVZ4ZRMJ5+eWXlRB4SB5PUV2yZIkSC88fIulNmjQJffr00SMlKEgeH8EXkvEB9e/fX9PyQd16660ICAjQeAMGDNAHTdLhmUTcfUvy/Pzzz3X3L+tCi+rdd9/V3bxTp07Vd3zwJVsse1fne/hAuko6fOcNR0X27xbptIrCbkRSwSEMCR6K+6c8g8Gzn8btc57EnXOfxj2znsfDk36OIYuHY1/WQZ2foOKslzHhjuw9eG3x+xg85QkMmv0EBs5+GHfMeQT3zXwKj014DqNWjkX66aMy6hT1JyPVqvNVCDscjZ8HvIbBU600d8x+DHfLvR6Y8YwogV/Af+0M5JaekM4pI3xJV95WhkV7gvCM/28w2P9pyf9J3D7vCQye+5SMQp+VEekrWLJjOQpriqVcMloXeXibdCxLzCE/yrYqF1+vHS91+JmU71FRag+Jgn8It4nSunOOKNEpT+Htee8jJmM36troIGvF4bKjGBL+Ne7xfxK3icwGiFLrN1eUqGDwLJHHhGfxZeAopJ1KV7Km6zH2ZDxeXfou7pz+GAbKfaz4Dyrp3CHk9qCkmRTlJ/LLU5cn7xR+eB1enPsq7pzxOG6b95iQjShfQT8hoEFCbo99+yLmbV2ComoORsg4ohNFfqwv58Q8STpcgcZ5rBP1p/BV1Gg8KPK6TerRV4iz39wHRAYP4g4hw3smPYl35w9BfNZ+NLY2CXmKVXgmBe8GfyqELAQicQbMs8i9v8iZ7ej+Sc/g86AROFpwDM0O6zgubz9eW/pH3DPjKXkuJF1Jo3gMt896QiyZn2FyhD/ySsXSk0rTkoxI24DnZv9O5PmE5P+IxBWCk/tQxnfLvZ8Qy2ze9qUyAONrrK8u6aSlHdE37JJ0WA6GhIQE3YBJAqH+4Vw4A08FCA0NVb1FvUNvzwcffKDnsBH8jbqOBMV9PFaaYB3IkwhIGNxzw8D9NPPnLRQLSgZRoj+4cZSnD3CQT5lQF+7du1etLxLgrIDZ6v2xA0+oCApaLoR3Wt+lk5aWLvm0YaKQD183Tk8VX6LH0z+cLeWuoAuk455wCJt0+GIhVmL9+vVaESpui3Ssw/bmzpmP99//UMy+jmM7aCVQydikQzJJTDyoFaZw7777bsyZM0fPB+J7I6jwuXuWFgkJgkKnBXLPPffoGy95bhB39zIuD8ljeo4SXnnlFT2Nla4zPsSHHnpI55/4YEkstHRomXEXMEmH7kIS2FNPPaV1YWA65svD8N57749qWbEe7uV1IfhAekI656QXVMu/sLRIPDf3V7h1xn346cL78BPBjxfdh5sWcvT5OJ73/x2W7Q5FWX25zscUtpzFzL2Lcf+sF3DTrPvx4wV344cL78SPFg6Skes9GDDtAfxq9uvYmLwZ9S08AkWeZ10+Rm2ZjEF+T+Dm2XIPSfPT+XfLiPU+tQzumPwQ3ln0R+zNikVzW510pFYcLT2GIZHDcZv/Y7hJRsQ/lvg/XnCXphsw5yEdxX4ZOgopp9PUBaPWjsjEJ6Qj92qVzp4sZXw38ivcLqP0PgvEcl54D26VOt0qf/dd8CDu9H8Uv5n7B2xO34ZaqRfJIK4kEa+Hvo/+M++XePeij8j7loX34qYF94gshLAmP4I/Bn6OpFOH0XS+WRRiEzZmb8MLgb8VK0fiL3oAt0qaW+ffi1vmS1pR3LdNfhRDw0cj/UyGqM8W1MjQYHGSWNdzfo6+8oz6yrPsK9bBzTJ6/4mUq68Q/j2TnsWULbORW3lK6srVGqLQvEY6bUKg55Bacxx/XC2Dr1lieckzvUXlJVjItnCvtJ2H8Ks5b2Lb8RjUt9aJtJqxq2AvfhX0FvrLwKYP67FQrBaR8c3zKa8HcLvfI3h76cc4dCpZSKdZan8Om7N34YXFr2LgLEkjdb5FnsctCx6Q5yOf8v3OiY9h1KrxOFmWo/KqliezODUMD837hVqd7Ac3M74jXf/ZQjxTnsbkLQE4LSRNl+TVJB2+uXfe3AWir86I3EXwEnbs2KmKniTDt/baRMEpCuo+WkJ0w/GFbLSEaOFwIE73PuNzIM6NmgzUj9wmwOOM+Obab8eO17ep0n3GN9vSJca/16/foHF5L1pRdPHRwqKOpaUTHLxCf1sTFS3XLEuHr1Onm23u3Pk6VcJAImKfJVnxbbCrVkVcCel0+Nndw5V0+LcFCpEKmwI8cOCAFoqB5MBrnJvh3zNnzhJTcAL27InT322F7Uw6jz7yqDxgKw/b0pk9ew6ioqJw7733qinIM4tIDNaLjPJFyLP0DCIeITFixAh1ufG+PBqEIwtaMO+/bxEa3Wx8oLR0GJfCvummm5V8SC48NI/kRNKh1UYy27Fjh9bZ9qfSnP27v/07DPt6mAidq508414jmBetKL5V8QJLR34sb6vEkv0r8NTMlzEw4GH0lQ7ZDlGAd858Es9M/Q3mbg3EmZqzSjp5jYWYvHM27vV/Dn0DHhLl8YBD+d2vI/A7/B7FL2a+itX71qKWcxnyL7MqB1+t+xaDpz+FAaI8+krcvjLCZfyBYhHcJdbP72e/he1HtqFRlHObkM6+/CS8tXyIKJXHRbnIqJPx9R73i5X0KO6d/BQ+DPwSB3KShHRohUn7kTo1i1nudfeakA6VaGZdHoZunCAj4afVpdaPCl1kR5fMQLEq7pn6JN5fPAT7T+4XS7FRyTGl8hj+GPElBs4QhSj16aMkda+QyH1iZZIMnsbXq8biWNFxUYdUuy2IzY/Hr4PewG0zxZJaJBaCEEhfsar60p0n1tI9U5/G1K0ByK06pSnqhagi0tfjZ/N+g4FMs0AsA4nbR9L0kc/bZj6Ox6e+hMV7g1Fcd0bagkU6tHb2eMnSobyyG0/hi+hvcJ/Ia6A8+74cdEi9+zrcWLdPeQzvBn2OfadEKZ+r17ocqjiCt0M+we0zxSqUshP9WXeSrciYlvPnoSORUZJpkY4wZ3zxIby8+E3c7v+IWHm0WDraNS0XuoL9189BYVWRtGla72IZHt+Ep0Re/UhUIl/K6lb9lGc54wk8MvVlLNkneqCh8opJh4ThKdKxLR0G6lO+SoDuLpIAdZJtYfDwTZ7qTE8Rj77hgJgWz8yZARgzZqwen0OdxHj2O3Jo+fANwJzDZqAOoQuM8zJcqMUzDzk3RNKJjIxUYqE7joeNZmVm6W92WLZsOZYsWYrqqmr1Oi2Yv0CnRWbNmi3l5ysNzmPxoiWqwyhDuvRCQ8O7Tzp03VyadAj31g5JJys7C4FBgdKAY/U7K8EFABQm3zGvr5vdsEkJiMxpWzNs+FQMPCPo7bffxUMPPoT4vfH6G0cAJBBaTxQqXWVc9UHSIeFYpHNK51tuuukmdevt2bNH52J4phCtGc7v8BpNWLrXaKXwPRO0YGiJcdTAd078/d//vZ59xKO+edIqSYck9v3vf19Pe+X7KWhFMe877xyEPn36qmnMwDq4l1dn8IF0mXTE0uk8pyOf8mO5jPGWHQ7HE3Nfxq0y8r6FI2hRBBx5c3Q4YNaj+Nms3yEoIRxljZXSNVuR31aCaQkLcVfAz8TSkdGgKIybRGn+lCNvUQT9/R7CS/P+gA2p21Df1iQpziOrPh9Dt07AHaLsSDa8R5/5/KQieBiD/B/HO0EfYfeJPTK6bxBqaxMr4ij+KFaE+uRldNtXykMFTQwURTJ42pMYsmoEUgrTRNG0+Ix09HdRolwQUC42xarjotwX/Q59/YQURUn1X/iIumf6zXgIj/n/HHN3LZTRMc+CozuzGcWowOykZbhv7nO4KUBkLSPpWxaKLEQh9p/+EJ72/xWW7w/D2YZSqY+oXSHUUyjCmNgpGCxy6hNAOch9hHx4n5un3IsXF/weG09sR+W5KpFfoy4MSa0/jo/XDhfSdrjjhHj6UI4kxwkP4g+BIu/TQg7na6U+8pSkbko6HlxIYJMO+zpXIFJewUdX4+n5v0a/gAekHrQILbndKuT4gN8LmLtvGXIb8rUdNIoFcgalmJccKJb1M1p3JdBFApFz3+kP4MlZLyM4ReTVRHm1oFHuk4+zGLl9CgZNf1wGOZz/EfJQa08GBH734+V5r2Nb5k7Utkrd6TI+34T01pP4UOQ1wE8GRSKvPra8OA828RG8vvRTIbMUjdum8pI6XSXSOXIkHcOGjdSjragHOfheuiRIFzfx6BlaGdRxdOVPmjRR55tJQpx7JrmwXyxatFD00FDRC0XYtHmTThVw0RRDyMoQLScXELAt8HPChElIP5oheixI71VyphTR0WslXYguGmCIjl6j0wwcjOu7e8rLxGoJ1XsdPpyCb74ZJTp3ghoVfn7ThXSKlXQWLFio885c7KCvIV8RokTWHfl0g3QuJB6SDM08WjN6+qh8Jyg0sigPrDx+PFuXIPNBk3X1rCh5qLZ7jYc/svGvW8dzkSw2ZX60cLhSjOxOc5Ir1Zjv9u3b9A17rCiP/169OrJ9aTYtG87VcJTAEQMZnVYK/aG0aDgPRNcYA69zpZvtwiNpkoi4mo3mJ69xTokTe/TBkuB4RDhHlw0NHfNSXQEfSI9IR4RVKx07pnAfXgv5AH2miRLgaFAUgLowOPE67RH8Iehj7MpJQJ0oskZRgOWoxeqsLXh28Su4ye9e6ZwPWkpTOnU/UWgDJz2M91cOxaHTR9UFRdIpFWWz6HAoHp7zIm71v1cJhAqgv3TsvqJ87p7yOL7dMAlZFZli5bSopXO6rRhT9szGPQFPo8/sB3SU2kcITi0J/wfx0PTnEbBnEfLrC4V0pO34wL3WIT+uXmsV+TXixLnT8D+wEA/PfhE3TbwbP510F26ZcA8GTXocQ9eOwaGzh0VR1au8m0Qp1ogqTWs+ieGxU4Vsn5b49+Gmqffj5okPSJ1exKRtAThWkaXk0dbWIp9NkqYOCWUH8dHaoTqvc/OUe3DLNLESJj2Ax2b8HLP2LUJuXYHGbT3XpPcrkwHF5sLdeD3sIwyU5/jTKVI2wS3j78Vzc36HlUeiUNxcKpalDCWkD7KPUKF5g3TY3prlHrVSvuy2fEw7MB/3z3keP518j5TpHqn7vbhj0pP4Uqzh5PKjqD5fgxYhXBJPjdQjvS0Tw3aNV/fsTZLmJ1IPyvr+ac9gcuxMHKvNRIPUmdZ7k5BIjdwnoToF76/5SqynR+U+d+PHU6Xuk+/DE3NexrzEIJxqKNRFKK0i4waRdYXcaUtRLF5Z8Uf0n/KwpJGBlJStv8j4xTmvIiQ1CoVNJTpvxOfPhRf2Pp1uLZnevlNPbOgJ6VC/8fgdvtOJA3DOv9AqYftk4GrclStXqCuNg2rqJYKeI04JUM9ygE1dx3RcVEAdxlVtzJ8r0bifkYfcLlkSKNbRUrVy6P7idc6/7JM62Ce9Uw8x0DigO4+uPA6ieS/mT/cdv5OIWDZaVKmph3UOh+2OCxROFxRpep5xmJV5QsvbHfl8R1eeXJZ0bNjE0wH6zBmsTt75mh34W0c8Z2VN5dMRl4TFlRD8tL93pHONy87j/JvVGZ0D4zubjwyMw2vOeTkHd2lcA+/d1UUEBB9Iz0jHWipdJJSwImM1nlrwa/xkwl24afo9uGmaKAJRTs/M/g0Ck8NQ0FyCBlECVFBUtCfPF8IveQHunfkMfjxxMH7iJ8pj+t3oM+E+/HLRm1iTuQWVMoLmZDv9+XWiBNJF0Y7YNRF3igK8eaoo5hn34Wa5T59xd+ON4PcRk79b6Ix7mOR5C/FQ0e6vSMbHG4dh4PRHRDHfi5v9JY0ogtvHP4TPo0fhYGmqlKdeCYB1Ysf2DenIp8ivUWRCeRTIyHpt4XYM2z4Bb4UPwWfrRmFZejgy6k9oPaio2C6576lOiLtCRvCZKERwznp8tnkC/rDqC3y+fhwiszchr+k06uVfKzeWciCmSrFBVG8tjjVnY2lGKD5eNwyvh3yMkVsnYWP+dhS0FumzZFwO+JrFwuSAolRSHaw7gtmHA/Fe9Fd4U8o2LsYfsWf3oeR8uabhXiPWic2cipRtyfNLpqV9C5qlLZB48lCCsPxN+Hzbt3ht1Sf4eM1ILE9fjeONeVrPZgcZUAYN5+rkWg2yxN4LPhmFTzZ9I2k+xpdbRiMyZx1ym0/Jr7XWQheRMV15fCYVci393AnMPxKMD9cNxxsRQzBi+ySsP70L+a0lDnmx3bRJmhYlahJPYu0RzDy0FG+v/hJvhg3BhFh/7C5JwNk2Iehzkkbic16v26Qj8RlIOlTYV0o6hJ2Xc7DysnSpq85y1Z/OcTr/bekfl+Ttgb+75s3AvC0d2/k3xnUX39axVjrmqV/l746ydFc23+GDtyugHfSSsON2B+7yuRjcpb/W4K7clwYfSo9IR+7bKJ2NSuAMKrFBOuNH60fgZwtfxfMLfo/Por/BhtwdYnGcRc25BiUcKqh6UQhV5+uQi9MIyY3Gu6LMnl7wCp5b9Ht8vXU8dhTtwZnzpaIsrA7KAQg7ODv0sZYTWHhsBV4P/xhPzfs1XlryB3wbMxXxZfvFgqrQkSfJma4yOlc4Wj/UmI5pB+fjV8vexbPzX8Hv5HPm/gVIrUmXFFV6nxbeh/XyJemI/KhE64VEaL1ISUSVVgmVlAkFVUnJOUpvFMKg3KjY5HlJv2gUAqoWBVcpxFIhv5+RWKel9iJljc+FA5ybsAmEn3TL1UmaWklTJTgjKU/LfcrkCtPQCqUVpfKWcpHomYZy5yZJloXPuEilXKv5kMj0PpJGCVvqyzblrX061gKMNiXqaq0761Gl9TirtNIgV2hNNykJkBD4yXpwYFEtNbHqzjSlkqZCrrEutWqpsM76XBwyJunKL1LrWklTLs+lVOUllCa5yDNxkZc1gGCaJsm3SWRVISjT9FouaZvNLJfE532ulHQ4PcDNsz0hnYvDnW7pLtzlezm4y6ercJdf9yGkI384NTjXCAY9BxtsT0jHBjspd9XXSUfjfMOxc7nIaMvB2fNUiS3SOdn5qTStDmq5iazJaiq8AumYaRL/qKBY/m6Qf62iaLk/RzeTUqnJ3yQU+sPL5U4nzxdJmhPIPEfvO9WPpQAti1BGQtp+uPlSRuxyD7rnssS6Sj+Xgzz5rBTFw/swT1o5dn2Z1lek0y4/goMsScBlwdQtEk2tLima/C5lkvponxB5WG5nS9G1SBpJTq+LjvB0v4zIy9pUS3nzkzLkdeuTz90eGfI+rDPvY8MuH88Ss9Ow3I4kmug8T5RolufDkwscdWB9mbcnSMf17DXeQ60Dx/lmLBNlZstLR7cSVwSiZbZk5Ghvmt6uu3xKXP7jhk71LoiAKSv7eXSA+XBhkoye5S4qAf4nMpLmLvlRXh3lI9juKKv2cjGlVEzlr+XuXF/2v6tNOmxnrBfzd/f7jYLvuLto4FmwwXaJdI4J6ex0Z+kQ9qiY7oVGHdPVCThC1Dkcuc5RuipViavxRVE1tUr8NiEdGRlWCSlUO8DvanlIOkuB2sqiTcmLo36SCEeTXBCrn3qfZgd5WErmwnJJeTQdP0k3MrJXC8I5DWXSQTpUnPQZu8qkq6DseM7fxS0dQu5N2ciNWX7Kqkm+N8uzsUjGFQ4ZUh4K/m1BXdIKK45rGiud5aLrQOf7dChRRxqJY91LSF/LZw0g9D7yuxXPSsP6EiQdTnRTdt1RinZ6yr6DdKxy2ErdLld7maRN2OWyCVbL7QpHPShjS852XWgJWnVhGVyfi3PdrftYFqdzudvjC7S+Ugnneznfw1le5En2P75/qEtnr4lsPE06LANDTbUMGWWARPLuaZ7dBctA8PnZ5fF1GYjv2I3M3Y8GngEfbFdIh+9O37EjptOSaRvWcxJlYZ9i3EywN1nfnUeE7c9URqNtEkd4QkwBO40DzqNridsBKx/m1ym+prGusxyXLldHfE2j5eoYrRKsL5WDfeBnT0hH9Ix2Ii7zJPFw866tRNvjOGCN4h3yItrLZpWPysqO25HGIQ8HNL1eJ2wZOki7Pb2Vt96DaL+HLbuOsnWUz5HGAbtMzvEI1rVZFBeVIneEc/l+d5SHLS++UoJ7Lbjg5mLp7frb6LA+rN+c43VAfpc4tqw66uJcn85y1udCsF06tU1LnlbcTmViHQjJ077PpeTFVVvczMgJdSXNS8jLk6RjWzdcxTZtqh/Gj5+I8eMmKuFzQZJzsPpEx/3tcLHrLBMHlvzNJhEG+zr7k3NgHDseXx3PZ08PA+M7p6d8VL6dk+t1d/fite7AWDo+AB9MV0iHb3LcvJnv0zkhaTorzQ7Y1y2wQ7oqABuc+LPRHtfREPlhHbxodWhnuObTNXQuV2dcGJ/1pbIkSVD5UT5XSjoE8+OegnXrNoj8rLeuusvvSuvpms76W+7h6JwEXT7dzbe7sAmDynPNmrXg8SX83t3OzzQ8T4uKODfXzuPiz8uGqxwuhsvFc/3N+TvLIv856uS+PJQDZW+nc87LFcyP+2V4IkpXXu9tK3dPkA7vffRoBr7+eoTua6mqqkHh6WLd6c82z1Asz4EWENsr78M0DGfPlskAii/Ys56LPXHPVWn2dTs+rSde50oy51B6thxnis9K+lZd4sx3CnGAx/T5p063x+dZbWwPjMdgW0P19Y26Wq21xbrO0NjQrJtGuWGUA1t39b4UDOn4AGwYXSGdqspqbN+2U3cYM01XGjo726VIh42lTcDTpjVPNqTmNjTKb7yn1WEtQnJN703w3vn5BdIJturSejbwrtT3YrAVBTcgs3PZR4tcnMisjtwZ7uLZsOLYslK5idKTD9Q2taFe5EnZdvzumrcz3OXfNViKoEEPcuQyWbalrpCFK2zy4knT0foaZ0tePXkGV4bO8uIcTb2UrdYh21Z9fs5xrHTOpNM5v85gHflaZy5XJvFwqfHl6ugp0rEHJDzwk8qeVoVzoPXFvTSTJ0/TEwB4ADLj8HPixMl6wsA334xRsuJz5jPn2WozZ8zCqFGjdf6Xy5y5LYXH4HB/zgz/ACVWBh59M3HCZEyf7q+W1SeffKp7IqljjqSl6/4eEhBd0mqBCZhPeXmFktKcOfM0LTez8jcS2InsHC0X49Fy4+Gi1uph9zJwB0M6PgAfyOVIh6NmNlBuotXRp4za+f1yD9MiDQvufifZtMi9OX/BMc2hzFyMmbMcS6K2oaRSRlfs2FfQoa4UtrJj/WNj47RDsZNcnBy6DioLKhhaO+ygPGfK2+FESTUmB0XBLzgaWUVndVLbm6GsrAKRkVFYv36jwy3WfcKxwedQW1uv7Y1W09mz3pfX5UKFtI+5a7ZixJxlSDlVRC9wj0JpKTc9hms7457CrihHT5EO5VtWWqEKOiMjU/KwBn4kI5pyq1evwbJlwbo3kHtopkyZphbEnNnzVLFzvyC9HjxZgIOC6dP9dLMnN4ZyQcT8+Qut+EIOetyN9HPu1SHBcTDB3+3jaxhCQlZhx/ZdOmihHloRHKIkQmLia7xZvuDlK7VcJ0/mKknRC0Hrh9cpD+bBTf72iQg846277c+Qjg/QFdIh2Ni5soYjGHYUHvXjqcAplrjsQrzrvwJ3vzMaz3w6RTp3DIoqOo++fBGoKDmPEx4eqS4xLmm93Ii1q6AMq6tqtIPwkNktm7epP53uKHuD3JXgpAM50klPnMjFyeIqJORV4culG/DgJ9PwwIcTMGLJGuzPLkZuUbl02lPSoU/iZA/uaYMKID09Q19lziNVaMmRqLsyKLkcmAddKJTX4kVLddd8WurRC+7vDZwgJH8+l5Onz+JocQ2mronFI19Mw+D3vsF7fkHYkZaLHMozR+R5QmSZfaLTs7T/dgavHzlyDJvFil64YDG2b98Jbibvqrw8STocBAUEzGl3mTMfXucJCTwbjW3TdmnxvEouDgkMXKaLazjnQ9Lid762YPnyFboQgrqErxUgYVGnfD10uBITz0UbNXK0EsOiRUt0Iyo3iWp95J4hIdYpMawP51LDwiIRs2u3ysg+iidb5MtTsbnBlFaYffIBrSMOTuga5LFmtHysE6a7tzGUMKTjA/ChdIV06A7jdf7OoyZ4OvfWLdulE+WqaVtRXnVZlDtQUV4tnzUor2pAedM57Eg/hdenr8Sdn8zAXUMX467P5uCRj6fAb9U2nCqrRb10gqrKGlRWVEsDtMC/9btT/t2BnZ5g3hx1cUczO0Vw8EolHAZPWDnOsJXG6YLC9tEZO6wNdlbuEO8Kgohl3DEeLJ1fsCwEy8OjMXp+CJ7+agZu/3gm7vxqKe4eugT3fDQNv/hyKqYskvqFRcu9VsoIcYXUNUTr2xPwuBGOYDmy5eY+Bk+RNZUgw6lTBeraobx4P+d7ew6himD5e/nKUCyTv1eKPGcsj8Yvh83A4I+mYNDQ+bhn+GLcLWT+xIdjMXLGUgStWiPxree4TOS6XGUqefBvp2drg/ciSXPegkq9q4RDeIp0CN537twFan1zlaAdeA9//wC1JOx5FZIGB2NsnyQfWiQlJaWq/Ek6dBHSLUZdwlfaMz7JY+zYcWr58L05nAeixbJ48RJdKGCfycbAs9VslxxJjQNb3odWle2S42ImDmySDx3W/G3S2bRpM1Y5zlljYD8ePXqszsmS2LojH0M6PkBXSccGGyQVSn5+oSoajnR4vIV9zMWlsEQa21IZ5SxZKN+XBGPOskh8PiMYj38RgIGfL0D/UWHoM2o1+o8Ml84dhIeG+OPtMbMwc0kogpaHIFDusVTyYD7u8r9ScORFUBlwma59BlRP3EOXgq04vBGOFlbh44XrcOeXi9BnxCrcMnIN+o5cjduHr8BdQuqfz1uNo/kloBdFZ8QdSt1TwZOWoQ1vyutiwRZLkejFb0NjcO8X89F/6DL0HRWuuG3ESgz+dBbemByEhOwzaFKBdj90lzA8TTq0voZ9PUItC86/0EKgBcSBJedoaMWS7Dl3wu0S7Oe0zqgnuDiAp/Tz+DDqgeTkw6JLmvXEflocnFNZsjhQCClcCYcDB070M0+SEY/xoVVJN2rYqgjtgyQSHdTK3yQ1ztuQFBmPLr6dO2PV3TZH7kvXH8Pateu072Ycy0R21kkpW4Pen2fKdVc+hnR8gO6SDmHPfTDQb8pGwxUml0JVdR2qq2pRU1WHuvoWsXCANYlZ+NX45bhTCOf2kaFCOkI4o6IwQJVkmIzQA/HY5wEYt3wjMk6Xo66xBdUymqH/m5sO3d2nq+ALoGzwO+vApZwMnrZuvAVrArtV94TwcaQWVOKjeWtw9+dzlGQGjIpEP5Fn/29EnqIoBw0Lwj2f+OOzORFIO3VGiUc30OrSVs+T6/UG5/lHtu+COmBs6C488OU83P5VEAZIm+w/MkLaaCQGyucgB/H8fsIS7D56yloAIwl18lohf4uQ3cH13l2FJ0mH5WDDyczMUoti3LiJmDbNTw/kpMUaG7sbM2YEqHuMLjhaZZyfoWVDC4iDMy4s4sQ+rQ+6t2jJ8DxLXufCAxIYrRDmQyuF56ExH/7OfANmzsax9OMoL6tU4uIqvqNHjuFQUgp4cGdRYbESEMvFuULqp1IhMBJWTU29PqeMjCwlMrrs+KoD3ovzptVcdddNWRvS8QGuhHScYXcCPvyLwdpeL387GjnncLYfycMrU1ZhwKcyIh8ejltGrcGto9bKKHIt+oxch1tGyN/DI3GbjC4f+nIOxq/YgpPFjhc5cTgtmfF99O7udyVgPTw9QvcG7JVSetqAKAZVcCKSxNxSvDt7Ne6UEfnAESFCNqvR55s1giiRa5TIN0osngjcLr8N/mQm3vcLxuGc09ajEUVhvxL8epCBp+EsU92MLO0hp6IJI4K3YtAX89Dv65VqLfZRqzFKP28V9JG/B4wMwx2fzcVvvl2IrSknUNfMPChPnqRhydTdPa8Udn/zxNlrhOs5ZXZ/cP7bDvY1Bl21J9/Zn53j8jr1B4Nz/Iv9baezg/NvzhtF7eD6u1V+67sd7O9XQu6GdHwAPsSekI4znEeKna9bHY8dpkEaxJr96fjFN4tx55B5uHO4EI8oyH6iIPt9Ey3Kkh1b/h6xRkaVq0WBhuHOr5bggSF+GB24DtlFZdqgSDgcVd2II3SVJ60TjqRFFvGZhXh9egjuGDJLLJxgDBwVoaTTV4jGIh0qTPk+MhL9R6zCHUOXYvAHU/HelEAknyxwEE/Hc7oRQeudhi715QkhnCHzo3DXkADcJhbOwJHhaoXTaiRIQEQ/hzxvH7Ycgz6bhReHB2DDweOoa+JgQBSkm/v0FM6k05NTpl1hWz3Mv9N1+X4p5W1vAGWci8XjdRKB6+/2defv7vJwjXcpdCeuOxjS8QE8STrOsEaOjhG5fPI9K1yLFr7vKJ4ZvgD9Pp6PASPCMUCIpj/JZrSQDImHinIEOzVHlNFqAXGEPmBooIzQ/fDFvAgcySu23BiiKazzsnr3CN0ic1ue1qicrhtO2cdm5OO3k4PRTwi8nxB0X5FhX4dMKU8lHipJ/RQCkr/7UO5fB+O2D6bj9QkLsTcjD82iXM5zBdMNIE/CqqPdPgUOAj92phYfzlmNAZ/MQv9hK9Xd21faoE04zqRDuRK3jogUAlqF/p/MxpNf+mF1fDpqGlvUILdPhvCUTKlUSQ6eJh0DC4Z0fADvkY7V2fS4G8mvRjpg+L50vDB6CQZ9uQiDRonik9HjAFGMVI42nDu1jX4kHccI/a5P/PHFgtVIz7fedkh3iN2he6uitOvGeuo1kSXXFMVmFOA1sXAGfz5PLJyQ9jkcwlWeznLtJ/EGjArDoBHLRZ5+eGPSYsQeyUEj7+GweDruacG1TNc7rDpa0NMvRJFnlDbi04XrcA/lOWyFY/7Gkp3K0yFbW44d8hSL/JtIDB4VisGfzcYLwwKw7kAGasXisRZWeK59tpNOD1/iZuAehnR8AE+SToeSst00QgrS6SpFQwbHHcXToxaj/+eCb6SjykjcHkGyM9voJ524j4wc2Zn5qeAIXeLqyjYZfQ4aEoAhs1bhyMnT7cTTm91stjztZes8qm7rkVz8alIwBny2AP3FwlG35CjLPWkrR1uetnK05UprqM9okb88h9tGhmDQpwF45dt52JF6Ag28n+P5dzzH3gltqw53zOGCCnw0fw3u/HIh+g8XeY5eiz7fcH7Rkl17+xR0apsqU2nHEpfWJed4bvt0Dp75yh+hMcmoqm/qdKyTu3J0B4Z0vAtDOj6Ap0nHOvZGOpfky85W2QwE7kjGU8Pm4g5RkLcND0XfEZxzcN+Bbx0egVuHReCWr8Pb0Wd4BwkN4KqhYcsx+P3J+GBaIFKzTynxWIrS6tSeGFFeC3Cuhz3fwEUY6w8ex6/GB2KQjMhvExLuNyJcycWWpzMoO8rTlik/KUeV/8hIIZ0w3D18OQZ9MAW/HhmA7cnZTsTT20inoz4tLfIpAyIRKQ7nV+A9/xDc/dks3DFMiHwkrfCO9km4tlW2U7t9tstUfu8vz8Ja1TYbj38yESu3H0BVXaODeHrePu05C0M63oEhHR/As6RzTk/j1U4lHbqwtgUB6/fhwS/noK9YOJzI5sofWi52Z3buyK4dWjuzKM326yNW45YRklb+Hjg0GHd+6IcPpgdhf2YemqQj2p2v95AOlRSPyJfvUr8qQdj+dDw3eiH6fTpXyGYVbtV5Gs57WUrStmycZemOdCzZW8+hn3y/XQYDt388Cy+NnIc1CUdRXs8XoNkuqAvLdj3C2dJoEiuci1p2ZxTi95NX4I7PZUAkBEx3mrZPJ5KxZNW5nV5AOiR3aZ+3SvvkJ63P2+QZPTJkChZvTsDZ2ga0OPqVczm6C2PpeBeGdHyAdtLZJ6Szp+eko5aOEA5dQBsOHsELI2fhtiEBuGNkiChE+sijdB7HdVRud2RbQdpwJh0bfSUeV7XdNXQpHnh/PMYviUDemTIpt6Wke5eS5DtZRK6iaBJPFOGNactxxyczcPuwZRg4qvOqKmeZ2rKiDG3F6Kwg7XjWCixaPBG4a/gKDPrjFLw3aRGSM3OkbcggQtrHxQ5tvd7QoezlU8yFvOoWfDZ/tc4T0sKhDAaKPGjluHNNOsO1rdrt1JIpSScCg0eFYNCQGXj+i0nYcSgdDTzgVuRpSOfahSEdH4AEQ9LhERf28Ra66obunG6CCop7cUg6HEXuP3UWQ4K2YNCwJUIUQjpjotF/tDXv4JZ0nBSja2du7+wER/dUnJ8twQtjlmJV3BFUNHDSlp3S6pi9A3w+QqKiILlSLaOsAaOjEnDPiED04d4Rzs1wLsdh5TgrynZ5XUKmGo+yVEtJnskXy/HQ0IXwX7sX+RW1QnTW8yTcl+/6BF2HPKyzoBGYvTMNj327En2GCigDzovpJwdHjhWATvJUmbohHLsd6ypByYPza32/DsHAIXPxVdAmHDtThSbpF5xD6kkbpWuNgaTjiX06Bp1hSMcHaCed+P16VhIP9fRUYE4HTlfiy5UxuG/UMgzgpkUZTbJzOo8ibdguiws6tKCf/MZ9OxzZczf4HUOX45dTIhCRmIMKzxX5mg5KPBWtmLjxMB6baLlw+ohcbAJxNzJ3VpCdCTxC4otiFdIaKPEHfrUcT44OxtztqThV3Wgdk9PLA+uYJ8SzYO8J/GxKFO4YsUqsHSHvERZ5uyNxV5mqXOWaJXfOlTmsRyGc+74OxKhV8ThSxvfbejbw7DJ6J+iZMKTjORjS8QHUldbSpu8/4XETPF2Zx4dHRKzWY+qvBKv1cw0iozciOHorhs0NxWNfzkT/T+cIeXB3t3Re7aSXcbE5/qay7CeKgCPPgTLyHPDFMgz6wB9/+HYRFoRtROS6zQiXModLmVluG6xL70CE1E0+V69F6NptGB+0Ds+OXIgBny5Ev2GhluxEls5zEc4yvRBW/P6j1+I2we1fr8Bt7/vh5RGzMTNkHSI2bEV4VHQnebp7ztcrtH2yXiLPkHXb4L9qK14atQC3fzQLA4eGYIDD8lN5OsnSlucFpOOwdCzrKAq3jQjFbZ/MxhOf+WHMgnCsjN6GiDXr9N49bZvsV0zPU6B5oKWxdDwLQzo+AH31RGHhGT0ynCe80tXWU8QnHECcWE+xCQexOeEwFmxJxDvz1uHekUHoPyxYRoOWxWODHdZ2uXV0alo91uo1jj4HyLX+XwThuXGrMCEsDmv2pCFmfwr26L32Ya+A5bfhrlzXI+IFrBvluSchEdv2pyI45jA+WboVD45eYR3TIpaL62ICG86Ew/kwtRyFeDh/QXk+Js/k68AtWLkjCVsTUuSZJWKP3G+vSzk4su5NiGc99yVj18F0hO9Ow+hVe/DUt6Ho/+UykY9jRaADrnK02qjdPsVqFJkOkGcwQCzGuz+fjw/mrcXSbYnS9iX/vfuxO26vuq/5wjIO8JzbaXexNy5B53OKi0p0wGhIx3MwpOND0OLxZqgXxBdU4NPgnRj09WLcKp2zjyg9y9qxyMYmnfaOzdVq0plvHS5ENDQM/T5dip9PWo2QfadQ2nEq+g0Z6Bo6VtaICesO4cFRwbjli2CRmShHxxxPZ8KhC0iUpPx9i8ThCqs+HKF/ugSPjQjEzE1JyCqv7/FLya73UNQILInLxLPjxHr8MsiSm8jS2eKx26YFytIhT2mjfT4Lwt2fzcfIlbuQVlKDZi/Lk/M7hnA8C0M61znsVTrNoiEbpYPwuM49pyvx2cpY3DU8CH2/tnZ960iSnVhGjO2uCsc1juD7fB2KPkMW4aXJkQhLKkBxE3SJNPeuWPe68tVA1xc66tlyDuDbQ45UtGHypjQ8NnYV+g/tkKfz6FytIBm5U4neIt85Or95yBI8KoQzd1saTlY36aCApMOJ7t6y+u9iYP2s42msv7mJmW2JbbRABjNB8dl4blK4vsqARwbZG0RdZarEM1wISUjn1i9XYNBnCzAqdA/SztaiTvKq5MnlzFyCviTthmmn1y8M6VznsF139tlTPKCyRjrjvsIqDI/YhwdkhN5vKF1tHaNGWjbEzbRw5HufYWEY8MUS/GZ6JKKST6G8Gbp82FrKay2Pdoa7clzvcK0b632epxifOwcZnCOjvBUB24/h2YkRGPh1sKUQHRakJVdaOBG4WeR88/Aw9Pl8KZ4eE4xFO47itBCO8Jeu/NOzYET5tu+16qVg3VjH88Ky51WW1inbPHuOJy6XyKAmeP8JvOQXJe1TLHKHPG2Lh2SjbVXI5hYhnZs/D8b9I4MxPvqgWJ8dFuOSxYvw3rtvIzZmFxobLdOcJ3S4K5PBtQFDOtc5OhSXNcLjaJIWSrl87jtdg1FCPPePlNHkl8t0JG6PJm3XBY8jIeH81m81Vifloqi+TUejoh90lNpb9o90F/aIWeUpSqxSkF7RilnbjuLZCWG6Em2AyLA/J8Tp9lEFSTdlGG75bDGeIeGIhZNb3qguIGsZr2hEB87L4NySa+8cmbNubDskHqsddeztoky53P+UmCorE/OEeKIx4Ctpn8PZPoWERJZ9BWrtCInf8uVy3DtsCSauS0JKSQOq5VnwRAcuN1+3fh1+/OMf47vf/S7eeust7N69Ryf+DfFcuzCk00tAJUmwc2sHl1F1vXS8wyV1GLtmP+4bGYibvwiU0WO4noLcd5RgGN+1swC/91+NTUdOo0IsHLoo+J4Sa2TaoShuVLTLVeRJ8sipasWimGP42fhQ9P+KczzWHM7NItObRWneNGQRnv12BYLjMlFS06LkosNyjvhbSOQW2gTWPXo36bgOXKw26ngXjpBGmcghMqUAvxKLp+8XS6V9hulrIihPDpBu+Wwp7h+2GFM3JCKzoh4NJBPOsbTwFdTncfToUQwYMADf+c532vH10GE4c+aMIZ5rFIZ0ehk6RpOWkqwRnZdS1oDxG5Lw0DfLxeIJ1L0nt41YhUFfLMbbs9Zi27EiyCDe0o2iXK18LMK50UmnA5SNjLBFnrkyQl8QexzPTgpHn6+CZFQepjK99dPFeHZcCFbsy0FhQ5vDwrFk6A7u79M7cLH6sl3ZcWjxsM2VyueatEL82p8WDxcX0OKJEBJahofEwvHfnISs6gaVPa3OZpEpT5Ag6ZSWleFnzz2HP/3TP1XCeeCBhxAbuwdNTc2GdK5RGNLpZbA6uGWtnGttRuu5Nn3HTnplE/y2HsZT367E7Z8vxV2fLcY70slj0gsh+tE6aUB6qX1gokEHOkbnbSonKsq82jYsO5CLX4oMBw1djjtllP7ypDCEHchDaaMQtsSxXglhvwTPHdzf70aAJVNLriSPCmmD646U4BX/TRj8tVjgnwXqRtp5O9KQX2NtpD0v7VNPOxdwUCWPQvHmm2/hL//yL/H118PVwmEwhHPtwpBOL4WOKNtapXO2oUk6dbV0zqPlTZi1KRW/GL4ST/1xDuaGJaKkslWP1LHim/f4Xwz2SF1JWeRZL/I8VQ+E7M3Dr0aF4pUxq7Bqb46SEVdVNTtZjM75GFhwlietFlqFJWLKTAtJxINvz8cLQuSLdh1HZk0znOXp3D45TyaPAitXrkRo6CqUidXD74xjljlfuzCk02thjbKdLR4uECiqAjbHFGPo8DCsDIpFbUWzrihivDYBD780xHNxUEaU53nVeEBpOTBh6iZMnL4RuXnlokTFEmqx3pRp5Hg5kBwoT859iTBFpOGrDuKPHwVjU0yh7hOzFrVYFhEJ3HbVdcBys9mhpKQUn376OaKj16O2ts6QzzUIQzq9FlR4HWgWJdksnZNuiuJ8YMH0GEQHx6Oxmi4jdmYSjk067vIzUNAaFEVJhUdd11IHLJsdi+D5CThTWOuk5AzhXBqUjyVLtjsurearWqNXHMDsSdtQIAQuBrhaOC3t8V3zkPYs8uZz4EIPrg6sqa7Dpk1bkHEsU887ZDDEc23BkE4vR8eI0LJ66AQvPtaEwLFbERN2QIaSlq+8ra1F4hvSuSzoXqMsqSQ5b1AChE3chW2Lk1F7tkktIMulZkjn0qB86P5luxNLh/KUtrh+YSzCp23H2fxK9Z2dU4LvuixtlxuDZXG6j2dw9WBIp5eDnc5atioWDZcLiaIsO3keoVPjsDsySZdj0b1mSKeLUNJpbSed8xXAuoB92BF0BDWGdLoByoeWjhPpNAFbg/chfMZOlBRUqtuMbuHuytKyfICpU/0wfZo/iouKzcKCawiGdHo5bNLhvhsZVqqiLD8BrJoSh9iwJJyvs0iHVpAhnS7AhXTaSoG1fnuxc2kKakoanUjHTVoDJ7ghnWZg8/J4rPLbipL8cgfp2G2y6zKltcPP/fsTFZzbYTADgWsDhnR6OdxZOpU5QIRfPGLCD6GNh4vJ7yQls5CgC3AhHVQBG2btxfYlB1FVXGdIp8ugjFxIpwXYHpqIUCGdM6ecSYfonkzpWrMXGNhpOefjGs/A9zCk08vRmXQ4NAeq84CNCw7hwKaj6ke3SMdeTGBI55JwJZ0aYOeSROwNSUPt2QYhHc5BUIZu0ho4wQ3piKWze/VhbFyyH2VF1UIaEqfd7dv9NkmS4QrDiIhIXdGWnZ1t3GzXAAzp9HJcQDryX9mJcwj3i0NcdLIhne7ClXQqaenEIWbZIUM63YIb0mkCtgTvQ2TATl1IoKRzjr9fuTxp7Jw8kYPdsXGorJSHJcEQz9WFIZ1ejgvda+eVdEKnxiI2MhHnebaI/G7ca12EG9JZOyMW25YeQE1JvXGvdRmWHF1JZ9OyvQjz24aS/AohDP7e7IjrLo/Lw9XNVlfXgKYm3tN9fAPvw5BOL0dn0rGWTFfmApEz9mJP1CGcp6UjipTH+HeQjvu8DARuSGfj7HjsCExC9RlDOl2HG9JpBrat3G9ZOgUkHdsS6rk8yTspKan4wx/exM6dMXo2m9m/c3VgSKeXo4N0uAGPxxyfQ8nxFqycHIOdYYloqaGvgaTTYkinK3AhnZYSIGrabiGdQ6g5a1avdR2UEUmFbc6xOVQGQBsC49TSOXuKpCNx1L3mGdIpLS1XNxtfG6+nqRs321WBIZ1ejgtIRzpbXYF07vmJ2BV2EI18n4Ehna7D1dKpA3YGJiN2eRqqijmnY5NOzxVl74ZDRs6k0wTERaWppVOSW66blj1FOs5uNn40NDSjsbFZrpvn5GsY0unlcGfpVJ8C1s49gJiIJDRVtzrca4Z0ugRX0qkCdiw6JKRzBNVKOlyQwThGmXUJQtLOpLNn9WFEzYpRS4fs4CnSsWERTiO++uprLFy4GOXl5cbN5mMY0unlcEc6Z7NasGLSLmwP3Y+WWtGchnS6DhfSOVcGrJvBfTrJqD5jSKfbcCadRmshQej0Lbo5lOudvUE6PJPtwIGDyMzM1rkdBvO8fAdDOr0c7kmnFSsm78KOVQfQWiu90JBO1+FCOudFN64V0tm88CAqi7iQwJBOt+Bi6WxdsQ8rp2zCmTxhcy+Qjp7HJpYN9+8wNDW2oK6uEa3GzeYzGNLp5XBHOly9FuG/11pIYCyd7sGFdHSfTkA8Ni9IFNLhiQSGdLoFZ9JxrF6zSYcLCVramtHihTZpbxydM2eevvwtLy9PrSDjavM+DOn0crid08kDomfvR1xUCtp4LJUoSEM6XYQr6VTL6HzBQexecdRx4KchnW7BxdLZueog1syOQelpbg5tU9LhSjO2Y7fprxAkHZJMdvZJXUpdV1fHruE2roFnYUinl+NS7rVd4QcN6XQXLqTDOZ1ovzjsCDxsSOdKoKTDPWQW6WwI3IPwGdutfTrCDOcUVjt2m76HIPEwmOflOxjS6eW4GOmETInRVxvoiQSiKA3pdBFuSGet/17saD9l2pBOt+C8ZLoZ2LgsXkhnh5BOpQhXyOhci3x4j3QMfA9DOr0cF5COKMWy7Dasmrq7fU6H+yH4ymB2fkM6l4EL6dgLCbaZ1WtXBpd9OhuD4hE6bRtK8kSw0i7PnxNZG9LpVTCk08vhjnS4OXT9vH1KOk1VLUo65iVuXYQL6aAW2LYoSZdMm4UEVwAX99ruiFSxdHbhTI6QjsjSkE7vgyGdXg53pFNx8jzC/WR0HrKvg3SMpdM1uJIOV6/NSsDWxYdQVWyWTHcbLqSzbeVBhPntEEunwueWDhcXuLt+JfBkXlcKEd81UQ5XGNLp5biAdKQlcvVahH+cdHAhnWq5bkin63AlnWohndkJ2Dj/AMpP1xrS6S5UnkIu0jStJdOJWDZxI4pySuUCJ/o9Szrcp8NPewGBHZy/9+TZ2cfqdGWBAgnB3i9kB6bzxLJt57yvtWXghnR6OdyRDhcSLBu/HVuD49vndDrca0ZZXhIupMOFBJFTdmHdnARUFBrS6TacSUcsnXVL9mDJ2GgU5pyVC54nHZsMaqrrkHQwGSnJqaitqdfvixYtxaZNW1BTU6NWAuNTeTtbC7ze6bvL31T0PPEgePlKrI5cg6qqKuuGjuBMACSoM2dKkZ11EhnHMlFYWCzXWzWec/txLgM/3RGT83V+8vUNM2bMQlBQsJSBL8Sz8nDNxzUP+/NS8XoKQzq9HJ1IR6wZ9pqKnPO6OTRu9SGgQRpVJ9LhSNAozIvChXR49trG2fuwa1maWTLdLThkdIF7LRGRAbG6es1aMu3Z1WtUoFu3bkO/vgPw//2/f4LvfOf/wS9/+WukHk7DkCGfYvbsOSgt5WkIXQ/2idV24NluX345FBMnTkZJSQlOnsxBaGiY5EvrjQpcSFYKUldXj3feeRd//dffxZ/9nz/HX/3V/8WvfvUbHDt2XPPsSnA+yNQ51NbW4dZb+uCZp59FQUGB4yrvzfiOL47A726ycBtsS7EnMKTTy8HOqmgTRekgncocIMIvDrHhB3GuzpBOt+BKOpUyOp+5F9sWHzKr17oFykfamsvqtU3LE7DKbztK+GoDIR2rXfZclhyx0wqhQu/Xrz/69u2H9es3YOPGTUJCW1FcfEa/Jx5IRFlZObZt24ajR49iRfAKhIeHo6KiAgkJCfjmm28wYsRIHD6ciqSkJKxcGYKiomLU19dj9erViImJFYVfix07diI+Pl5I5yzeeutt/O3f/i3efvttxMbGSlzuU4CSztNPP61lOXjwIPz8/PBP//RPmDkzQMtDcjxy5Cj8/f0l3W4ls+jotfj888/1Fdw1NbWaT0pKCkaPHoP3339fr/P+vMcdd9wphPorsaAKpbyHMW3adGRmZolM2xASEoqPP/5YyhylG2MrK6uwZk00MjKOIzAwEJGRkUqSy5cH46OPPsGUKdORk5OnZNhTd50hnRsF0rk5b0OCKc1uE9LZi/g1KUC99EXp1B17dIyyvCRcSIdLpnng565lqag1lk43YMnReklbB+lsCNyLyJm79EQCaayeIx2H4TB9uj++973vi1JdjaYmuaEjZGdnCxn1w4cffiiKOROPPvoI/uVf/gX/9//+NYYN+xpz587Ff/3XfyluvvlmVcojRozAP/7jPwrRxODMmTPo378/fv/734tlcxL33XcvXnrpF6LIo3DLLTfjT//0TzBo0J0IDg5GdXW13pPK/uWXX0afPreKJRQq1tGX+NGPf4TtO7Zjz549+OEPf4h//ud/VixdukR/79OnD1544QUt28iRI4Ugy7Rszz//vJb5L//yLxEQEKD3uOeee5SIduzYgf/+7/8WAnoZ+fn5+PTTT/GjH/0IL774Iv71X/9VSG4mTpw4ofX6/ve/j3/4h7/HmDFj8Mc//hHf/e7f4Mknn8aDDzwsJLhdZWZIx6BrcCIdnjLNzaF7IpMs0lFFaUinS3BDOtF+e7AjMMW417oFS44W6XS41zYs3YNwf55IYLnXPG3pjBk9VpT5j7Bly1a0tLQIGVlsRKK47bbb8Nlnn4HnsD3yyCOqhGmZ0Mp56qmncP/994uldKw9zbhx41R50wKi8r/77rvx3nvv4dSpU3jsscfw61//WvN65513MHjwYLEiMjQdLQ3LvVanJEWiILH8yZ/8Ce666y4lgMTERCWd5557TvPLysrCTTfdJMTyqFgfy7WsP/3pT5UgadmQ+Ege3/ve97QMdOuxDgTzISmdPn1arTcS57PPPitW2krceuutQoaDkJycLBZXXwwYMED/ZhnffPNN/MVf/AVGjvgGubn5co2DAPfy7Q4M6dwosElHGg7da6tnxGNn6H40t69eM4TTJbiQDud0ts5PxPalKeaU6W7BkqPlXnMsJBDEhB/CqulbceZkmWhnKjnPks7MmbNkNP8v6oZytnRycnJw++23K+nw7wcffBCvv/66KnxaMVTGr776qn63A11t//M//4NDhw6pe43E8u6772qcxx9/XK2Y3NxcvPHGG7j33ntx/PhxTUeys0mHZEAyI6nQuqFFMnbsWCWRn/zkJ+1WC4mNvw0cOBC/+93vlKxIenv37lViYv60YP7jP/5D3XgsM4mSRPad73wHv/nNb1BcXKwk+u///u9KkK+99hpeeeUVTJw4EampqUpiH330kRIoA+87bNhwsfb+rxDezdiXcEBkKXrEWDoGXYKTpVOTD6ybe0DndJrb9+lYnd9tWoMOuJJONbBzSQp2Bx81czrdgiXHTqTTDMSvOYLouXE4m0f32nnhHc+QDsHJ8rTUo+jbhyP623QOZtOmTarg09PTlVg++eQTnfjn6J+WCkmD5fzFL36Bf/u3f9M5ji1btqhlRMuC7ih+Ll68GP/5n/+pCp/WDYmEbjCmf+utt/Q3zv/k5uYp6TDQQnnmmWdU2XMOifnQ4pkyZYoSEK2oyZMno7KyUhcD0LohmR05cgTZ2SeU3FgHlmvq1KmIi9uLH/zgh0qOJJg777wTzzz9DObMmaPuOJIUrShaNyQ7kiuJkOVlOX/wgx9oWc+ePYvm5makpaWJdVSI2bPn4u///u8xaeIUIaIaQzoGXYQT6fDVBiGTd2HdkhjUlzca0ukO3Fg66wP2Yu2svSjNr3IiHTdpDZxgk05n99q2FQew5Nu1KDxx1uOkY1s7mzdvRf/+A9QK+F//63+pO4ouJbrEOE9CBUz3E60WzoEwpKYeVmvif//v/43vfve7YilFqLImsfzVX/2VusXuumswvv56qBBEPl566SWxlF5TYtiydYtYRD/U+3377bedLAnOm/zN3/wN/vzP/wx/8Rd/rhYJCYbuNVpeM2bMaF92vWvXLp2nIYH8wz/8A8aMGa0kQnIkKTz00ENaBi40oHvtiSeewAcffKB/c46G5MRFEzt2bBcCG6jf6Y7jAgbWk5Yay8+3qTLQLcg4//Hv/yWW38MigyNCONb7iNzJt6swpHOjwIl0uDk0bFosNi+PQ6NYOvRR2yNOt2kNOuDG0lknpBM9K86QTrdAGbmsXhNLZ2fIQQSNW4fCk9Y+HU+SDiFNXQOXRdOlRKuByp8je855cJTf2Niof9Na4N/2HA7ndtLSUsXKyJLr1go0XmMeTEdyIKEwL6YlbKuGVgXvx9+puJknf2Mc/saFDCQbO35DQ4OUoUCtHObnXAYSJO9JS4luOl7jCja61FgGfqfrkPmRcHg/5kGCYhx+J7Fw9d2xY+lyr3qRTavGZz34NwPLejjlsNzvsJSjWsrAVbDu5dodGNK5UeBEOiXHWxA8cQdiIhL1lGlDOt2AC+m0lgLhk3Zhy8Ik1JzhKdMyEjTzY10A5UPSEVIRnJdrfF119MIYhEzdipL8CuEcIXAPzem4gq42O1Bx20qdwflvTp63tLBvdN4Pw+uu1+zA3+zrjMPvzsFO63wfOzCdu3uxDK75MA4JpCtl6Jwfvzu+SOBvzmVhfCuN44IjeIJwCEM6NwqcSIdLpkOn7m5/tcE5dgJDOl2DKowO0rFPmd4VZC+ZNqTTNViK13KvSbt0uNc2BcUjYuYu69UGXiQdK0+DrsGd/K4chnRuFDiRDl9tQNKJjUjCuXpDOt2CG9LhkuntS+z36ZB0RJbyaeR5KVA2JB22O6d9OkF7rc2hXrZ0DK4eDOncIGjRzm2Rjp4yPW0PdoUlorWWE6zSqQ3pdA0upGOfSKD7dJR0LHK3XBRGnhcHZcN2Rzm1tc/pbA7ep+61M6eEzQ3p9EoY0rlBoKQjHficdOS6fGDj3EQkRKcaS6e7cCWdamD7oiTsXpFuSOdKoPLsWDIdE56M6DlxKC2oEvka0umNMKRzg8C2dDhhyM2hUTMSEBeVYkinu3AlHdGNm+bwwM9UQzpXAmfSaQK2rtjffuCnsXR6Jwzp3CBwJp2yrDaETNql7rU2ko5cM6TTRbiQDud0Vk+NwVaxdmp09ZohnW7BxdJZt3QPlk/aiDN5ZU6kQ1m6SWtwXcKQzg0Ci3REWZ47j+pcsXT892JP5CFj6XQXbkiHq9d2BPHsNUM63YYz6Qi2rNiHcP+dTgsJmuV30zZ7Ewzp3CBwtnTOHm9B6OQYxEQkoa3OtnSMkuwSXEinrVQIfNoebF+abNxrVwJn0uHqtcB4rJruvHqNpGOsnd4EQzo3CJxJpyYPWDMzHttD9jmdSGCUZJfgQjqc09ky/wB2COlUFfPAT0M63YIL6ewIPYjQ6TtwJoer13gigSGd3gZDOjcIWpRULPdafQGweX4iYsOT0NTpGByjKC8LV9KpAXYFHnY68NOQTrfgTDo88DM6HWtmx+NsbqWYkcbS6Y0wpHODgKRjH39RmtWKsKm7EROWiJZa6fBCOnyzqFGUXYAL6fAYnHViNe4MOmzca92A/UZbypNn1SnpNAJbgxMR7h+DknwhHW2XhnR6Gwzp3CCwLB3rXe7l2W1YNTkGO0P2o7WddNixDfFcFq6WToV1IsGm+QdQWVRnSKe7cLZ0msQCX74PwZM2oTi3zJBOL4UhnRsENumcF0VZceIcwqfuwa7QA2itlms62nQmHfd5GAhcSaeKq9fiDOlcKZxJp9nap7Ni8mYU5xjS6a0wpHODwNnSqT0FrJuVgLjIZLTVnrdIp5Ol4z4PA4Er6dQC2xcnIXZ5WsecTvveEkM6F0OHe806IFWPwRHi2b06FVGzduOsca/1WhjSuUHgTDqlma1YNSUOe4R0ztfBQTokHEM6l4WSTlvHnE4JED19D3YGJqNW9+lw7kzk6JC32zwMlHDO6afI0iadBmDD0niE+e0ypNOLYUjnBoFFOjJCP3ceNWLpbJx3AAnRh3FORurG0ukGbEtHCIVvoeTqtR1L92PPSu7TcV0y7Sa9gcImnXMqS8erDZqBPVEpWDOXrzbgPh2R5bkmiW/k2ZtgSOdGgboxWnFeSKfyZCs2zk7AwfWpOrok6bDjW6RjRueXhIN0zreJkiTpVAHbFsYjISwV9WV8nw6VKInHyPFS6LB0OpNOTPgBbFoch/IiEayQzrk2ko5pl70JhnR6PazOqm8SlE+0AfU5wKbphxC3LF2X/EI6/HlVlLalYzr4RaEWY5slS87pVALbZ6ciZkEmqguaHLK0XEZGjhcHSZnWorrW5JPLpTkAil+VhagpB1ByQkiHbVZIp/PCDCPT6x2GdHo9rE56TsgGrUDWvnKsHHYU376wDd/+OgLRcxJwJrfCWjZtSOfy0DkbKkMg/0gDVk/KxOQX92Diy5sRPHEr8tOLlXjOmTmdS8IiHcd8zvnzKD8BbJiRg6m/i8XYX2zComHbkZtaiDZ9TbPIUuccjUx7Awzp9HaoO0iUIJekyoAyL6kZc95Iw5A7N2PoE5HYtvAomvWYK8v9Zjr1pWEdJySKsu08anKBZV+kYtg9cfjy/o0InZiAs/lV6sJURWlkeVHYpKMr17hjuRyIGpeNYY/swseD1mLxFwkoya2RNuuQpSGdXgNDOlcJ6tOW0bINXT7qFThIRz7BeQixdpLXVmLsC1uwaswh1BTQ5Wa5hLz5bn/RG16sow+hyq8V55stV+XpRGDqr2OxZEgizhxvUPlyrqK3rl5raTknaPMIWvVTLBmRJfePncsDZr+zDVNf3Y6CZLrXON/o3C5tuC+bwfUBQzpXAVxBdlVDGZC5pQS5KTxU0XHNx4EycCeb7oJKkGTGwfJVCaIY03eWoehAHc7XO65dhdAmAwd38rkScIBwteSZvbcGJ3e2oLHSceEqBW4taJW25U4+Bj2DIR0fQ99nU12Do0ePYe/eBOyNsxC/dx/i472JBCTIPQ7sSUFK7AkcjsnFwV1HsS82CfFx+6UM8e1lcUXcnnjs6QF2794riFMkJOxHQX6hyKLNI8SjykFGv7m5p7B/X6Lb8nsScXspp3jE79mPfbuTkLTnGA7vzsHBmAzExxxE3G7W16qrL7Bnz15kZ51EY2OTR4iHhEPLOy83X58V82c7tduRc5v1BGx57tuThIOxx6RtnhTkIFH+TpBre+Pknoznks4bYFuNjY1DSkoqamrqtW15kswNLBjS8SF0RC4NOT39GIKClmPFihCsXbsea9asxZoo7yJqTbRiddQa+R6FdWujsW7dWkSvld+j1yG6C+hJOaPXrNO6LlkSiK1btqOyospjpFNdVYO10esRGLhMy8n7uJbd85A6RUeLTFaL/CIEkSLfKJWxu/p7GpTnunUbsGDBIkRFRePs2bMeUZC0cJqbW7FhwyYsXRKEyMgolaf3ZGrJ0cZaaY+8xrYWJXWMipJ256b+3gDb0MqVoZg7dz5OZOeIPLloxL2cDK4chnR8CJt0jh3LwI7tu1B4ushhzN84ISXlsI6WKyoqPEY6FRWV2L5tJ44fz3Lc5cYJHJXv2LHLs6TT1KJ5ZmRkoqWFK1BunFAlAxiSYU5OniEdL8GQjg/hTDpbt+5Afn6BNYFKl4Z8ssN7G6Ln2+Hud3dg2ZwXPXQVrJtzPgzJySnqsikv9yzpbNu2Q12WfDeQ8z29je7K0pNQeR5K0bZUUuJZ0iGJpx/NEKunpVO+nlxIYIH52Xm2KjpWqXUsHLDdft4E5zcrK6uUdOiu5dJ4QzqehyEdH8LZvbZlyzYlHU8o3usFJIhDScnqP/eke42KgqRz5Ei6XLtxFAUJwpukQxJvbm72uTzdEZtNPt4E615eXqmuPUM63oMhHR/CHenwO6+7i9/bQIJIEtLhpLAnSYeWztat25V0qChuFCLvraRztaCkU1ZhSMfLMKTjQ9zIpGMvw/Um6aSlHZVrnlkVdz3AJh0ShCGdnsOQjm9gSMeH6EQ6m7fh1Kn8G5J0uDSVROEV0mm5cSZ/Kc9DQjrbjKXjERjS8Q0M6fgQ7kjnRhmV26Rz8GCSLiTwJOncyHM6hnQ8B0M6voEhHR/CkI4hHU/CkI5nYUjHN1DSuRHcO9cCDOl4i3SqDekY0ukxDOn4BoZ0fIiLkQ6XiPpiSejVhOdIx5aVBeZhLB1DOp6AIR3fwJCOD2FIx1Okw30bFizS4eZQLpnm6jVDOj2BIR1DOt6GIR0fwpCOp0intf0VAzyBwCKdbYZ0DOn0CIZ0fANDOj6EIR1PWjqGdAzpeBaGdHwDQzo+hCEdQzqehCEdz8KQjm9gSMeHMKTjadJxntMxpGNIp2cwpOMbGNLxIS5HOvzkd4YrU8ieg3NZ2Pl6SopXy9Kx73u15UlwebclT/e/dxdXg3RseRLWs+hZu7hS2H1GyyJydRenu2BehnS8D0M6PsTlSIdKqampGbW19fLZclWfC8vCl3k1NlLp9LzzXS3SoWzr6hrQ0NCkv3XOy3dg/fk8Gxqa5btnjuqhPK8G6dRU16Ghvknrc7XaKMvB1xGwHJ6UpyEd78OQjg9BOV+OdNLSjmDt2g3IycntpJTtUTKDnYafroEdxzlYcS03lHNgPHYomwwYbIvGvhYREYkpU6bh+PFMTe9cBjtYHfPCH+y8nOvP9D0/e415knQsMA+LdC5cMs37cQ8PlUhy8mF95z2fgTvZsbzu5MS8nK+d1zK7l73zfZ2/E5Qn36M0atRofbUDv9tydw52Gtff3MmTcXxJOmwXLEN4eKS+urq+vsHxmyVz5zLrNYFrPVy/M1j1YtzOP7Kv8HnZ8rS/2+UsKSnF2DHj9HXqHKy5loHBLrvrdeZp19kG4xjS8T4M6fgQlyId/U0a/aFDyQgLi0B29gn9jelUeVZUYXdsnL6imOkY6urqceDAQSGH1XJ9PQ4fTkVFeQVSU1MRGRmJxMREiVOncWtra/WNnatWheu79QsLz8h9W/W36uoaFBeXOJSIpVBLS8uwcOFifP31cMnnoMbj/QoKCjUfvuiKb+qk4uf106eLNN/IyDXIyMhydNjOipL14Pt04uJ6SjodYB4X2xzK+/H9KKGhYSonko6dhmB8vqY4JTlVLJBGrWN2draQ/jqVX2xsLM6cKREFlIf16zdg48ZN8v2MxmM4fvy4EjNf7Xzs2HHU1Yr85L4kr6KiM1Kuakd5LGW7c2cMhnzyGUJCVmn9Ga9MlBzLwddBx8bu0etU+mWlFfoSNZaP8qqurm6vlw2rvfiedJYvW6HP2iYdypLh2LFjKje24YaGBr2Wl2fJLjJyNXbt2qXyKyg4jU2bNulrqdmW+YZOhszMTI23fv1GvTctVPsFa2xffJaUmd1XaDF//NEQLFq0RNsry8a2kJWVLcQRLfLepXJjOygtLbeetxBKTMxu1NTUaB7OMuN3QzrehyEdH6IrpMM3a5JETpw46VCOEMVULp0xCsuWBWPlilAsX74CJ0/mSCeORWDgclWqw4aN0A5fWFgoo9B46bjrpTMuFIKIU0sgLCwcM2fOUtJiXoGBy9SqYtixY6d0tHV6H/ue+/btxzqxuBiXJzjzN7rGhg8fCX//mao4p06drvHs67MC5mj5pk3z02vOI1PCM6TTGczzYsfgWL9VITwsUspzSH9jmRiosIKClmv9Zs2aIxbYIX2V9uLFixEVFYXx48fDz99PnsMJJfEdO3ZgyZIlWLlypSjA06pAAwIC5HsINm/egvnzF7Yr4oyM4/qs+Mmy8LmSXEjUGzdu1ufH36qrazFtqh9GfzNW7hkNv+kzEC3PobysEtOn+ePbb8fr9cmTp2K1kDkHFK5K8mqQzooVISo/1pXWCdMkJMRj7tw5Ut7V0s5m6oAnI+OYynPDhg2YOHGiyHScKPNcGRwdxvbt2yWfFfo75cn406dPQ3DwCvltJxYuWKwkXVNTi4L80yrf7OwcLQPvR3cpZcznvnDhEuTl5uv1+fPnY+TIkUo6M2YEYEVwiBB4mbbV4cNHYfVqynOaPLdQIbHyC+RpSMf7MKTjQ3SXdPidIS5uryjGuapg2BlogSxdGoRlQcFi/eyW9K1KDIzHwJFjRUWFkhCxZcsWhIeHIycnR3/nK4jZsXbujFULhwSyd2+8loWKmq4KKpbIiCjt+AEBs3EwMUnjzJu3oJ2sqGyZD9+nz7LQvcWwYcNGtdbOni3VPO36e490Lm7pKOmER6pbz5ZxcfEZrcfWLdtRXVWrvy9btlwU1gJVkJTdnj17lHxI4gyNjY1KsAsWLFTCCQoKEpJK0d8YYuU5UI55eadUJiSL0tJSLQvvSSW9YP4ifYZUhps3bcWZ4rOYLc91X8IBlQVdqksWB4qsD2nc/fsTVfHRLTd37nxpN3xJXUfdme/VJh0GWhN+fn5CqtGoqqoSxb4as2fPlkHPIm1/JSUlQvoHESIEXXjalmeTkrm//wypwyEln+TkZGnLLfo760VZ8J1TW7ds0/Zk15Fl5ABh0qQpUkaRzZz5OphiOebzuW7dJpZ9nZB0pco3JSVV43JQwOdIq4cDjYyMTMmvo70wX0M63ochHR/iUqTDzkwl6Uw6duB8xdix47RzsSMGy+jtSFo6YmP2iDJaIJ17qYzmI5RU2JFnz56FOTLqnDJlioyql6vypDVDl4JNLFSgHHnTlUEFSYXHTsbfOYczYcIkjB49Vq2ajz76BJs2bVYlSPccrSyGOFE8tCI2bdyiL6UrKCjQ63ukc3NkfloUjDOxXHXSkesMWVknRAlNVcuCriKSOOcojh49KspvkSpLfqamHpb0lfI8IlSJ+vv7i3KdLnJbI0owTPKx3ItczEBFRpKmi4yj6NRUzi9Zioz3pWU5bNhIyWcePvvsC7U6M45lYlVouNw3XctFVx7j8blSrunpGSojuupYTpKPsxK8uqQT3046xcXF0l4mqHxoDc6dO1cGKzvVVcnvbIPz5s2TNrdP5ckBEK2hOXPmqEXJuIGBS4Ww2QZZBi64oCWzAgnx+yWPQJ2TY1nsECiDri+++ApzRJ5Dhw7Ttsr+tCp0lZJYU1MTmhpb1Bpiu6ULju9bIqlxkMZnnnyIeba018+Qjm9gSMeH6Arp0M2zevUaafR5ju5F18U+VWQkBufAuFRSHHVWVVXryHrhwoXYuHGj/s5Re0hIiFo6ISGhyMzM0usMRUXFokyjMH26v5DEXumgVodmx+McBRV1WVmZXiNh0SVEpUq3B0eZDLRoOOdAS4eKITU1Ta+vW7te45aXV2j97PpfDdKhEglbFdFeZgZaOlRGnHtwDhyRBwcHK8kUFRVJ+nM6euconHMTGRkZYuksaLd0qNycJ7851xUQMEdkHSYWUpFDgVqLQ+gessmlWEhksQwUdu6I0RE35UHy4ryQKkNRsLa7rkWUYop8nzNn3jVDOiRAWme0Vhg4b8h2RxeZbakw0PKw5Xnq1ClJ26puSrrA8vPzlaxmzOiwdPbv36+WiB1Yf7rFKAu2V1vUtCb9/GaopcI2VFtTr9ZjQsJ+kdNcbf+8d0F+oV5PkwEAXZRspyRKuus4mMrMzNb0dv2YvyEd78OQjg9xKdLR36TRczEArQz682fPnqtzDlRG4eGrda6EbixaFuyEdCOMHPmNug4WL16qLgzLlz1TlOIyjBo1Sv3mVKCc02E8kse+fQd0YQEncrmaigsFWC7en8oyOHilzgvZ1zjxS9cROz9HlOzwdO9x3iHp4CElv2++GaOj96VLghAwc7YqWldSuRqkw+XnVOR2+RYtXKIWBMswwz9A5cY5MVqWJJWJEyeJVfmtKsOYmFh1KQYESL2WBorimizP5VtJL1ZmbKw8j2nqbqO1yOeRnX0SQ78aposC6KK0lWRU1BolcZKaHegOWr58JcaNm4gJ4yfJcwqV5z5Zn21lZY26U8eNm6DPYvz4ieqO4/yGsxJk/r4mHf5OedK6mDljlsN9laKW86RJk0WeS7TNcVEAXWPjx09QmU2dOk3JgERPeQYGBsnzCMDw4cPVYkxKStK4dHty0FVyphQV5VUYMWKUyoruMrs9ckEH2zEtQ1vG69dt1IGEn58/xowZo4MsEhbzonUVIM+e846U+bdjxyNC+hPbjas8Del4H4Z0fIiuWDqNDU3qduGojC6r+L37VKFwhdjhw2l6jUozMTFJiCRS4zY3tWLjhs3aYbnqLfN4JvaKUs2XER2VLl0ITE/fNud+6F7ia523b9+hypCdl+Xg/Rnv7NkyHRFqp2OZpTNS4XFkHiydNiZmDw4cSMLpgiL9jaTDfDj/QzcViYuB6Vkvu/6+Jh0qSXvlE+9J2VGueXn5Uq825Obk6bwWR+0nT+Yq+ezevUcV3HEZRZPkqUz5nGhNcmTNctur/nIkDSe96b7hXAatU5LxkbSj+px5b5aHS3s5d2SVzVKctBI40qbyZNlZPip5yp0WIuXJvDna53WuBnNVgMzHl6Rj/053H606lpsg2TLeqVMF2gYoK/69fHmwWIUx8nyq9Rlw+T1lxXbJFWQcTFVX1eieNLYFPhc+n7i4BLVUaL3Pn79I5USLkuWg/DgXRnmek/ZlExFdabwHn6EtN/aX+vp6XQVHstkqcmL5rOtcBGFWr10NCOlQsXQoBgPv4VKkw6Wg7vaJMLDxu16noufkMjt44eliVVKhIWE64nYOdsdyTk9XDpcQ0/XAkbwdh+Ww4zkTBhU7A+dw6GcnaTmH+PgEneh1dgm6Eo6djy9Jx5nMnYMqKpdrFRVV6vKiy7FAyJR7aShfe3GEc3CVJwOJli4wzseRNJyVFeXL4Fwupmc8uiVp3ToHzg8FLl0m5GUt2GBgWipc5wEi8/U16bDsrvtpGBjH+TKJmYMguoVJQImJh9Qqsp6RVMQp2HVzTs9FKJyrXLlyVfuCDOcyMljtyzrJwy4TLfyDB5PV0rRDbU2dlGWhutno4mNgm7Dzc87XkI73IaTDde+dlYOBd3A50nFV0hcDOwxHh/T90/3CeZ1toiSoeC6nyJmWHZouIWu/gowYu6D8mY5uNo4S7aXV9nUuGOColSPTS+XFuL4kna7CVngcgXNxBa0VzgNxHxLnKC6VH+/PZ8eRP/co0aXEvC5XBqarEyv0UFKKjtApC6ZhWo7MaZUWFhZrm1FIGWk5XW3S6SqYDy08LrsngbKd8vlwgp99wLUuNigXprUWrURIm7MWo1yuDJQPT9BISUmTfnVankmrptH6iKXPQVa+Xr/46QWMa0jH+xDSkYdjSMcn8BTp2CNl19BVJc6ObQd3FsnFYKdzTuNclsvdn+mvRdJhHZjOWS526EpezjLg83WnTN3Bvp9rGpsEna9fb6RDMC/XwLxYl0vJiPJ0tqastta1NqpyEzjHp9wg1yhv57iuYDpDOt6HsXR8CHa0i5FOVzuVM9wpoq7gcp3eW7hWSccZPZVpd58l01nxu//8qSSvZdKxcaWyuRLYz8/1urtrrjCk4xsY0vEh2PE8STrXG64H0rmecL2QzvUCQzq+gSEdH8KQjiEdT8KQjmdhSMc3MKTjQxjSMaTjSRjS8SwM6fgGhnR8CEM6nni1QWcY0jGk4ykY0vENDOn4EDcy6XCCl5265y9x6wxDOoZ0PAVDOr6BIR0fwpCOIR1PwpCOZ2FIxzcwpONDGNIxpONJGNLxLAzp+AaGdHwIQzqGdDwJQzqehSEd38CQjg9xOdLh770V3JznK9I5J4rCXRm8BXfluhzc5dNdeI10mlv10MyukI67cl2vMKTjGwjpUNkZ0vEFtGE7SIenPes5XfKdCrm3g/Vk4JJpnoDtSdJhXpQnSYeKgsrDV+D97fq5+92bYEj2oqXD08x5bpndRq9GHX0F1o9H5fDgV0M63oWQjqUMXX8w8Dxs0uHLuDgy5wGaN1qgpcNj5/lKaE+TTnr6cf1+IwUeDGof9uop0mlsbFZLh6/NcH4p240Qqqpq9NDXnJw8kWebIR0vwFg6PoQz6SxdukxPh+ZLpngcflh4pGKV47O3IVzquCosAnPmLcAWIQj7ROqeDnhIMjwpmy9O46sJeDIx7xPqAsrV3fWegvnytRJ8tUN34ImyUK4Bs+ZgdVS0nhxOBdlTeZJ06F7j22MXzF+kryZg+2Qd3dXT0zJlft54TpcD78k2GhS0XF9pwfcrGUvHO3CydKx5BdcIBp4FFS1fEpaVeULfMZJ44JCM/gVJyUjs5Tgg9Uw+nIbiklK0skN7iHSoHHgEfkpyKg4kJmGfG+wX8P6eRqLgoDzH7oLpmH6/4/NKYNcpL78ATY65l57Kkws+mAdf1MbXBPBlfe6Q6PhkGdzJu6foiVyuCE714ist+JI9ErAhHc9DSMdqZIZ0fAcSz40cPNmZuQiD7Zd53qjB08rRXml4IwdDNt6Dg3Quf+y3gfdB5XkjwZ0MrhTt+YmyaBE0u3zacbwB53JcDu3xXcp3OXSlHs738Tba7+dSPk/Bvocv4Vw/A+/BiXRs8Adj8RhcX2hXGg6ldQHpEM7xrhIuVs7LobfU42JwTu96L4PeBUM6Br0CzkrYWZm5KrJrRlkL3JXzcnCXz9VAT+txMdh5X+36GXgPxr1mYGBgYOAzmIUEBr0K9ijZHdzFv1pwV76uwl1+VwvuytdTuLuPQe+Bi6VjSMfAwMDAwHswpGNgYGBg4DMY0jEwMDAw8BkM6RgYGBgY+AyGdAwMDAwMfAZDOgYGBgYGPoMhHQMDAwMDn8GQjoGBgYGBj3Ae/z/NDEuoXrYq2gAAAABJRU5ErkJggg==;imageBorder=#000000;" parent="q2e0teX-T_m4GWr_z-8k-1" vertex="1">
                    <mxGeometry x="-210" y="280" width="383.76" height="210" as="geometry"/>
                </mxCell>
                <mxCell id="q2e0teX-T_m4GWr_z-8k-39" value="" style="endArrow=none;html=1;" parent="q2e0teX-T_m4GWr_z-8k-1" source="q2e0teX-T_m4GWr_z-8k-5" target="q2e0teX-T_m4GWr_z-8k-38" edge="1">
                    <mxGeometry width="50" height="50" relative="1" as="geometry">
                        <mxPoint x="798.8235294117649" y="650" as="sourcePoint"/>
                        <mxPoint x="728.2352941176468" y="750" as="targetPoint"/>
                    </mxGeometry>
                </mxCell>
                <mxCell id="q2e0teX-T_m4GWr_z-8k-40" value="nhiều threadpool: nếu như chỉ dùng 1 thread pool thì service 1 dùng hết threadpool mà lại lâu thì request bị ùn tắc ở tầng view, nhiều threadpool cho phép các service khác hoạt động bình thường với mọi service khác fail" style="shape=note;whiteSpace=wrap;html=1;backgroundOutline=1;darkOpacity=0.05;verticalAlign=bottom;size=14;align=left;" parent="q2e0teX-T_m4GWr_z-8k-1" vertex="1">
                    <mxGeometry x="-270" y="580" width="220" height="100" as="geometry"/>
                </mxCell>
                <mxCell id="q2e0teX-T_m4GWr_z-8k-41" value="circus breakers: tiện như sau: khi server có dấu hiệu crash mình có thể tạm thời tắt các service để tránh hỏng dữ liệu - tính nhất quán, ngoài ra cũng có thể ngăn chặn hacker lấy dữ liệu liên quan" style="shape=note;whiteSpace=wrap;html=1;backgroundOutline=1;darkOpacity=0.05;verticalAlign=bottom;size=14;align=left;" parent="q2e0teX-T_m4GWr_z-8k-1" vertex="1">
                    <mxGeometry x="-60" y="30" width="130" height="150" as="geometry"/>
                </mxCell>
                <mxCell id="q2e0teX-T_m4GWr_z-8k-42" value="" style="endArrow=none;html=1;" parent="q2e0teX-T_m4GWr_z-8k-1" source="q2e0teX-T_m4GWr_z-8k-38" target="q2e0teX-T_m4GWr_z-8k-41" edge="1">
                    <mxGeometry width="50" height="50" relative="1" as="geometry">
                        <mxPoint x="438.5600000000002" y="690" as="sourcePoint"/>
                        <mxPoint x="425.8666666666668" y="730" as="targetPoint"/>
                    </mxGeometry>
                </mxCell>
                <mxCell id="d0b3PnvKpbY2xN-oVnon-0" value="" style="endArrow=none;html=1;" parent="q2e0teX-T_m4GWr_z-8k-1" source="q2e0teX-T_m4GWr_z-8k-36" target="q2e0teX-T_m4GWr_z-8k-38" edge="1">
                    <mxGeometry width="50" height="50" relative="1" as="geometry">
                        <mxPoint x="438.5600000000002" y="690" as="sourcePoint"/>
                        <mxPoint x="425.8666666666668" y="730" as="targetPoint"/>
                    </mxGeometry>
                </mxCell>
            </root>
        </mxGraphModel>
    </diagram>
</mxfile>